<?xml version="1.0" encoding="UTF-8"?>
<svg version="1.1" xmlns="http://www.w3.org/2000/svg" width="620" height="1080">
<path d="M0 0 C204.6 0 409.2 0 620 0 C620 356.4 620 712.8 620 1080 C415.4 1080 210.8 1080 0 1080 C0 723.6 0 367.2 0 0 Z " fill="#50a8ce" transform="translate(0,0)"/>
<path d="M0 0 C1.65 0 3.3 0 5 0 C5.66 1.98 6.32 3.96 7 6 C7.66 6 8.32 6 9 6 C10.42812215 8.0588761 11.7279824 10.09770934 13 12.25 C13.53367187 13.12978516 13.53367187 13.12978516 14.078125 14.02734375 C15.52114919 16.42341003 16.91020259 18.81734041 18.14453125 21.328125 C18.93746717 23.12704376 18.93746717 23.12704376 20.6875 24.5 C21.120625 24.995 21.55375 25.49 22 26 C21.6875 28.1875 21.6875 28.1875 21 30 C20.01 30 19.02 30 18 30 C18 30.66 18 31.32 18 32 C16.4221875 32.5878125 16.4221875 32.5878125 14.8125 33.1875 C11.86436788 34.42381347 10.68201431 35.31798569 8.3125 37.6875 C7.549375 38.450625 6.78625 39.21375 6 40 C4.68 40 3.36 40 2 40 C2 40.66 2 41.32 2 42 C-0.1171875 43.5078125 -0.1171875 43.5078125 -2.875 45.125 C-3.77992188 45.66382813 -4.68484375 46.20265625 -5.6171875 46.7578125 C-8 48 -8 48 -10 48 C-8.48855078 39.55303556 -6.86350084 31.21383478 -4.6953125 22.90625 C-3.51817491 17.98607941 -2.75355024 13.00002746 -2 8 C-1.34 8 -0.68 8 0 8 C0 5.36 0 2.72 0 0 Z " fill="#50a8ce" transform="translate(454,0)"/>
<path d="M0 0 C0.81633674 2.85717858 1.45062923 5.5904656 2 8.5 C3.52761197 16.05883501 3.52761197 16.05883501 5.75 23.4375 C7 27 7 27 7 30 C2.34932123 29.53493212 -1.00091369 28.11504923 -5.0625 25.9765625 C-7.62741583 24.68376218 -10.26112068 23.85589979 -13 23 C-14.90800413 22.28854083 -16.81570544 21.57618331 -18.71875 20.8515625 C-20.39961455 20.22411649 -22.08841521 19.61783174 -23.78125 19.0234375 C-25.21984375 18.51683594 -25.21984375 18.51683594 -26.6875 18 C-27.57824219 17.690625 -28.46898437 17.38125 -29.38671875 17.0625 C-32.14437351 15.94130106 -34.55135807 14.6941955 -37 13 C-37 12.34 -37 11.68 -37 11 C-36.25427734 10.74307373 -35.50855469 10.48614746 -34.74023438 10.22143555 C-31.32643937 9.04456627 -27.91321638 7.86604634 -24.5 6.6875 C-22.74042969 6.08131836 -22.74042969 6.08131836 -20.9453125 5.46289062 C-19.79804688 5.06650391 -18.65078125 4.67011719 -17.46875 4.26171875 C-16.35242188 3.87677246 -15.23609375 3.49182617 -14.0859375 3.09521484 C-11.47628345 2.16903541 -8.91207984 1.17762547 -6.34375 0.14453125 C-3 -1 -3 -1 0 0 Z " fill="#caa7b9" transform="translate(369,408)"/>
<path d="M0 0 C4.44998238 0.61078189 8.35992001 1.73957609 12.5625 3.3125 C18.43859708 5.47081167 24.34373708 7.36347498 30.35546875 9.10546875 C33 10 33 10 36 12 C35.5 13.875 35.5 13.875 34 16 C31.26089301 16.86738388 28.80166123 17.50711515 26 18 C24.845 18.20625 23.69 18.4125 22.5 18.625 C21.675 18.74875 20.85 18.8725 20 19 C20 19.66 20 20.32 20 21 C19.14277344 21.24234375 18.28554687 21.4846875 17.40234375 21.734375 C9.98716459 23.80348647 9.98716459 23.80348647 3.125 27.1875 C-0.49514359 29.28718328 -2.88442717 29.66403487 -7 30 C-6.40129119 24.48200334 -5.4539413 19.24420471 -4.0625 13.875 C-3.89298828 13.19824219 -3.72347656 12.52148438 -3.54882812 11.82421875 C-2.5301785 7.81933773 -1.35576753 3.90315137 0 0 Z " fill="#8ea9b7" transform="translate(132,42)"/>
<path d="M0 0 C0.66 0 1.32 0 2 0 C2.11522956 12.38077633 1.89587605 24.6497088 1 37 C-4.15665027 37.15423011 -8.9063749 36.6055973 -13.9375 35.5625 C-19.28196004 34.47909345 -24.58046413 33.62370078 -30 33 C-29.75 30.625 -29.75 30.625 -29 28 C-27 26.875 -27 26.875 -25 26 C-24.67 25.01 -24.34 24.02 -24 23 C-23.34 23 -22.68 23 -22 23 C-21.731875 22.360625 -21.46375 21.72125 -21.1875 21.0625 C-20 19 -20 19 -17 18 C-16.67 17.01 -16.34 16.02 -16 15 C-15.34 15 -14.68 15 -14 15 C-13.731875 14.360625 -13.46375 13.72125 -13.1875 13.0625 C-12 11 -12 11 -9 10 C-8.67 9.01 -8.34 8.02 -8 7 C-7.0409375 6.7834375 -7.0409375 6.7834375 -6.0625 6.5625 C-3.8186655 6.20987907 -3.8186655 6.20987907 -2.875 4.0625 C-2.441875 3.0415625 -2.441875 3.0415625 -2 2 C-1.34 1.34 -0.68 0.68 0 0 Z " fill="#caa7b9" transform="translate(414,220)"/>
<path d="M0 0 C0.98358241 3.70717641 1.96107671 7.41593212 2.9375 11.125 C3.35418945 12.69507813 3.35418945 12.69507813 3.77929688 14.296875 C4.04677734 15.31523438 4.31425781 16.33359375 4.58984375 17.3828125 C4.83597412 18.31496582 5.08210449 19.24711914 5.33569336 20.20751953 C6.02953503 23.1241535 6.53950868 26.03833384 7 29 C-0.16377671 28.50020162 -6.3998267 25.67787461 -13 23 C-14.72910482 22.31234448 -16.45826565 21.62482974 -18.1875 20.9375 C-19.37279297 20.45796875 -19.37279297 20.45796875 -20.58203125 19.96875 C-22.28204676 19.28764524 -23.98844397 18.62236005 -25.69921875 17.96875 C-26.58222656 17.6284375 -27.46523438 17.288125 -28.375 16.9375 C-29.16648437 16.63714844 -29.95796875 16.33679688 -30.7734375 16.02734375 C-33.12528131 14.94219476 -34.98816244 13.62141247 -37 12 C-33.14243493 9.84694043 -30.44870215 8.60746746 -26 9 C-26 8.34 -26 7.68 -26 7 C-24.90300781 6.66226563 -23.80601562 6.32453125 -22.67578125 5.9765625 C-21.22132093 5.52614898 -19.76689569 5.07562216 -18.3125 4.625 C-17.2306543 4.29242187 -17.2306543 4.29242187 -16.12695312 3.953125 C-13.11323999 3.01736019 -10.19502013 2.08386147 -7.29296875 0.8359375 C-4.71799357 -0.10280984 -2.71944735 -0.06028817 0 0 Z " fill="#caa7b9" transform="translate(341,707)"/>
<path d="M0 0 C-0.42925781 1.90072266 -0.42925781 1.90072266 -0.8671875 3.83984375 C-2.02858723 9.06614254 -3.08470937 14.3109588 -4.125 19.5625 C-4.30675781 20.47580078 -4.48851562 21.38910156 -4.67578125 22.33007812 C-5.11807969 24.55320975 -5.55947145 26.77651711 -6 29 C-9.51508141 30.01073508 -11.0064178 29.88108965 -14.375 28.375 C-18.7454058 26.50383823 -23.14365821 24.83024467 -27.625 23.25 C-28.83414063 22.82203125 -30.04328125 22.3940625 -31.2890625 21.953125 C-32.18367188 21.63859375 -33.07828125 21.3240625 -34 21 C-34 20.34 -34 19.68 -34 19 C-37.3 18.34 -40.6 17.68 -44 17 C-43.34 16.67 -42.68 16.34 -42 16 C-42 15.34 -42 14.68 -42 14 C-41.41734375 13.84144531 -40.8346875 13.68289062 -40.234375 13.51953125 C-34.41490096 11.86336018 -28.92999338 9.77586082 -23.3671875 7.40625 C-19.43609384 5.76449395 -15.47949717 4.2074782 -11.5 2.6875 C-10.81728027 2.42090576 -10.13456055 2.15431152 -9.43115234 1.87963867 C-6.02871963 0.59155672 -3.69379472 0 0 0 Z " fill="#caa7b9" transform="translate(124,239)"/>
<path d="M0 0 C1.43791516 0.14168137 2.8753237 0.28851043 4.3125 0.4375 C5.11300781 0.51871094 5.91351563 0.59992188 6.73828125 0.68359375 C9 1 9 1 12 2 C12 2.66 12 3.32 12 4 C12.71285156 4.12503906 13.42570312 4.25007813 14.16015625 4.37890625 C17.04829361 5.01056215 19.67179817 5.89790995 22.4375 6.9375 C25.47007413 8.06551949 28.49232352 9.16410784 31.5625 10.1875 C34 11 34 11 36 12 C36 12.66 36 13.32 36 14 C33.18857876 15.10697816 30.37592348 16.21063123 27.5625 17.3125 C26.3878418 17.7755957 26.3878418 17.7755957 25.18945312 18.24804688 C21.22221213 19.79902586 17.25279799 21.27122826 13.203125 22.59375 C9.32334721 23.86211441 5.71167888 25.44623268 2.04296875 27.23046875 C0 28 0 28 -4 28 C-4 28.66 -4 29.32 -4 30 C-5.32 30 -6.64 30 -8 30 C-5.71580912 19.85479051 -3.23411567 9.89157718 0 0 Z " fill="#caa7b9" transform="translate(132,408)"/>
<path d="M0 0 C6.70705624 0.8399491 11.85864702 2.19323936 17.62890625 5.7109375 C21.21901514 7.66272652 25.02650641 8.73389147 28.9140625 9.953125 C33.77601439 11.60249602 38.37670577 13.77936261 43 16 C40.66823244 18.67299029 38.56929304 19.75252755 35.24609375 20.9375 C34.30830078 21.27523437 33.37050781 21.61296875 32.40429688 21.9609375 C31.42525391 22.30382812 30.44621094 22.64671875 29.4375 23 C28.48552734 23.34289062 27.53355469 23.68578125 26.55273438 24.0390625 C20.42347705 26.22540071 14.25166394 28.19451467 8 30 C3.52885642 20.41897804 1.54465563 10.41279621 0 0 Z " fill="#b1c1a8" transform="translate(376,903)"/>
<path d="M0 0 C-1.62407699 10.08637289 -3.7649932 20.2949796 -7 30 C-16.20440987 27.97334095 -24.73841425 24.40406517 -33.42578125 20.83984375 C-36.91050063 19.41580321 -40.40707685 18.13121398 -44 17 C-42.66666667 16.33333333 -41.33333333 15.66666667 -40 15 C-39.319375 14.62875 -38.63875 14.2575 -37.9375 13.875 C-36 13 -36 13 -33 13 C-33 12.34 -33 11.68 -33 11 C-28.71 10.01 -24.42 9.02 -20 8 C-20 7.34 -20 6.68 -20 6 C-17.41958904 4.99183944 -14.83613056 3.9932889 -12.25 3 C-11.52039063 2.71382812 -10.79078125 2.42765625 -10.0390625 2.1328125 C-9.33007812 1.86210938 -8.62109375 1.59140625 -7.890625 1.3125 C-7.24125977 1.06113281 -6.59189453 0.80976562 -5.92285156 0.55078125 C-4 0 -4 0 0 0 Z " fill="#caa7b9" transform="translate(124,903)"/>
<path d="M0 0 C-0.56759211 7.00509246 -2.04653541 13.3410589 -4.0625 20.0625 C-4.34416016 21.02349609 -4.62582031 21.98449219 -4.91601562 22.97460938 C-5.60401284 25.31846429 -6.2987601 27.66007993 -7 30 C-10.66651397 29.35899236 -13.97971758 28.36021838 -17.45703125 27.0390625 C-18.48763672 26.64976562 -19.51824219 26.26046875 -20.58007812 25.859375 C-21.64677734 25.45203125 -22.71347656 25.0446875 -23.8125 24.625 C-24.86759766 24.22539063 -25.92269531 23.82578125 -27.00976562 23.4140625 C-29.0638792 22.635931 -31.11744853 21.85636096 -33.17041016 21.07519531 C-36.77596314 19.7051474 -40.38725935 18.35096454 -44 17 C-41.8883231 14.8883231 -40.78430458 14.43404876 -38.0078125 13.52734375 C-36.82638672 13.13772461 -36.82638672 13.13772461 -35.62109375 12.74023438 C-34.79738281 12.47533203 -33.97367188 12.21042969 -33.125 11.9375 C-32.30902344 11.66873047 -31.49304688 11.39996094 -30.65234375 11.12304688 C-27.12058175 9.96787839 -23.61475617 8.86780615 -20 8 C-20 7.34 -20 6.68 -20 6 C-16 4.66666667 -12 3.33333333 -8 2 C-6.91976562 1.62617187 -5.83953125 1.25234375 -4.7265625 0.8671875 C-2 0 -2 0 0 0 Z " fill="#b1c1a8" transform="translate(124,604)"/>
<path d="M0 0 C8.58323099 1.57359235 16.91262234 4.30364168 24.8125 7.9921875 C30.71541784 10.71174608 36.80368132 13.04326778 43 15 C43 15.66 43 16.32 43 17 C37.80946775 19.04208015 32.61314941 21.06797361 27.40771484 23.07177734 C25.88857109 23.65743791 24.37051059 24.2459234 22.85400391 24.83837891 C20.97009562 25.57170303 19.07897695 26.28642474 17.1875 27 C16.10855469 27.4125 15.02960938 27.825 13.91796875 28.25 C10.77070154 29.05893615 9.10645791 28.73301019 6 28 C4.99228484 24.08527676 3.9951719 20.167929 3 16.25 C2.71382812 15.13882813 2.42765625 14.02765625 2.1328125 12.8828125 C1.86210937 11.81289063 1.59140625 10.74296875 1.3125 9.640625 C1.06113281 8.65610352 0.80976563 7.67158203 0.55078125 6.65722656 C0 4 0 4 0 0 Z " fill="#b1c1a8" transform="translate(245,596)"/>
<path d="M0 0 C1.32 0 2.64 0 4 0 C4 0.66 4 1.32 4 2 C4.61746094 2.18175781 5.23492187 2.36351562 5.87109375 2.55078125 C10.8659911 4.03328503 15.83063381 5.57484673 20.765625 7.24609375 C22.31450526 7.76870545 23.86687788 8.28103622 25.421875 8.78515625 C26.21078125 9.04167969 26.9996875 9.29820312 27.8125 9.5625 C28.52019531 9.79066406 29.22789062 10.01882813 29.95703125 10.25390625 C32.06519278 11.02380845 34.0131411 11.95968961 36 13 C35.67 13.99 35.34 14.98 35 16 C32.15625 17.02734375 32.15625 17.02734375 28.5 17.9375 C23.32559981 19.30223488 18.63825306 20.85224554 13.8671875 23.265625 C12 24 12 24 8 24 C8 24.66 8 25.32 8 26 C7.36191406 26.20496094 6.72382813 26.40992188 6.06640625 26.62109375 C5.24011719 26.89050781 4.41382813 27.15992188 3.5625 27.4375 C2.73878906 27.70433594 1.91507813 27.97117187 1.06640625 28.24609375 C-0.96219588 28.82155494 -0.96219588 28.82155494 -2 30 C-3.66617115 30.04063832 -5.33388095 30.042721 -7 30 C-5.39825667 21.23256282 -3.20065031 12.63112201 -1 4 C-0.66567727 2.66691441 -0.33172376 1.3337347 0 0 Z " fill="#b1c1a8" transform="translate(132,706)"/>
<path d="M0 0 C1.93951969 2.90927953 2.63734123 4.85047483 3.5078125 8.18359375 C3.90419922 9.69856445 3.90419922 9.69856445 4.30859375 11.24414062 C4.57800781 12.29794922 4.84742188 13.35175781 5.125 14.4375 C5.40214844 15.48744141 5.67929687 16.53738281 5.96484375 17.61914062 C7.07616132 21.91386294 8 25.53805623 8 30 C0.39118738 28.22978645 -6.53493307 25.58943492 -13.671875 22.4296875 C-17.72274876 20.68952342 -21.79184098 19.30598038 -26 18 C-26 17.34 -26 16.68 -26 16 C-29.3 15.34 -32.6 14.68 -36 14 C-36 13.34 -36 12.68 -36 12 C-35.20078125 11.75765625 -34.4015625 11.5153125 -33.578125 11.265625 C-23.27919986 8.12276052 -13.06089732 4.84143352 -3 1 C-2.01 0.67 -1.02 0.34 0 0 Z " fill="#b1c1a8" transform="translate(367,42)"/>
<path d="M0 0 C0 9.24 0 18.48 0 28 C-4.17630668 26.80676952 -7.82777035 25.76151651 -11.75 24.125 C-17.11315125 21.93023349 -22.54385354 19.95010558 -28 18 C-28 17.34 -28 16.68 -28 16 C-30.64 15.34 -33.28 14.68 -36 14 C-30.9849319 8.9849319 -23.63439979 7.11945411 -17.0390625 5.015625 C-13.3257396 3.77466876 -9.7471412 2.29042785 -6.15625 0.734375 C-4 0 -4 0 0 0 Z " fill="#caa7b9" transform="translate(620,42)"/>
<path d="M0 0 C0 9.24 0 18.48 0 28 C-5.95987467 26.2120376 -11.38507085 24.5218939 -17.0625 22.18359375 C-20.89268017 20.64031637 -24.75663053 19.19436701 -28.625 17.75 C-29.34896973 17.47953857 -30.07293945 17.20907715 -30.81884766 16.93041992 C-32.54556867 16.28606222 -34.27273649 15.64290205 -36 15 C-36 14.34 -36 13.68 -36 13 C-28.13348239 9.47122526 -20.4258956 6.83756234 -12 5 C-12 4.34 -12 3.68 -12 3 C-10.37604003 2.49663233 -8.75079459 1.99741024 -7.125 1.5 C-6.22007812 1.2215625 -5.31515625 0.943125 -4.3828125 0.65625 C-2 0 -2 0 0 0 Z " fill="#b1c1a8" transform="translate(620,407)"/>
<path d="M0 0 C-1.00255991 12.4317429 -2.45756501 25.31945288 -7 37 C-12.10915111 34.49024156 -17.08334206 31.86805047 -22 29 C-22 28.34 -22 27.68 -22 27 C-22.5775 26.87625 -23.155 26.7525 -23.75 26.625 C-26.02335767 25.99351176 -27.9253529 25.11141809 -30 24 C-30 23.34 -30 22.68 -30 22 C-29.34 22 -28.68 22 -28 22 C-28 21.34 -28 20.68 -28 20 C-26.68 19.67 -25.36 19.34 -24 19 C-24 18.34 -24 17.68 -24 17 C-20.53846154 14 -20.53846154 14 -18 14 C-18 13.34 -18 12.68 -18 12 C-12.58823529 8 -12.58823529 8 -10 8 C-10 7.34 -10 6.68 -10 6 C-6.53846154 3 -6.53846154 3 -4 3 C-4 2.34 -4 1.68 -4 1 C-2 0 -2 0 0 0 Z " fill="#b1c1a8" transform="translate(562,778)"/>
<path d="M0 0 C6 19.10679612 6 19.10679612 6 25 C-6.91936986 25.4997464 -19.2500611 23.98865198 -32 22 C-31.505 20.515 -31.505 20.515 -31 19 C-30.01 19 -29.02 19 -28 19 C-28 18.34 -28 17.68 -28 17 C-24.32547562 14.1605948 -22.73113419 13 -18 13 C-17.67 12.01 -17.34 11.02 -17 10 C-15.22265625 8.61328125 -15.22265625 8.61328125 -13.0625 7.3125 C-11.99708984 6.65701172 -11.99708984 6.65701172 -10.91015625 5.98828125 C-9 5 -9 5 -7 5 C-7 4.34 -7 3.68 -7 3 C-6.01 3 -5.02 3 -4 3 C-4 2.34 -4 1.68 -4 1 C-2 0 -2 0 0 0 Z " fill="#b1c1a8" transform="translate(434,587)"/>
<path d="M0 0 C0.66 0 1.32 0 2 0 C1.50195612 6.96239326 0.3114535 13.45406856 -1.5 20.1875 C-2.98575596 25.78667747 -4.31438354 31.24237994 -5 37 C-7.3431213 36.74438677 -9.67843403 36.40729228 -12 36 C-12.33 35.34 -12.66 34.68 -13 34 C-15.01669827 32.86649466 -15.01669827 32.86649466 -17 32 C-17 31.34 -17 30.68 -17 30 C-18.051875 29.731875 -19.10375 29.46375 -20.1875 29.1875 C-23.57519246 28.1323171 -26.07089567 26.95273622 -29 25 C-27.70638752 21.11916255 -25.30678035 19.68495763 -22.125 17.375 C-21.58230469 16.96765625 -21.03960937 16.5603125 -20.48046875 16.140625 C-17.99679804 14.30671656 -15.94885496 12.98295165 -13 12 C-13 11.34 -13 10.68 -13 10 C-10.91796875 8.30859375 -10.91796875 8.30859375 -8.1875 6.4375 C-7.29417969 5.81746094 -6.40085937 5.19742187 -5.48046875 4.55859375 C-3 3 -3 3 0 2 C0 1.34 0 0.68 0 0 Z " fill="#87c2db" transform="translate(309,478)"/>
<path d="M0 0 C4.86504966 0.32433664 6.77323053 1.45055359 10 5 C12.13309192 6.23512079 12.13309192 6.23512079 14 7 C14 7.66 14 8.32 14 9 C14.99 9 15.98 9 17 9 C17 9.66 17 10.32 17 11 C17.70125 11.061875 18.4025 11.12375 19.125 11.1875 C22.92797627 12.26225416 25.04486753 14.42211849 28 17 C30.21587348 18.27852287 30.21587348 18.27852287 32 19 C32 19.66 32 20.32 32 21 C31.40985107 21.05534912 30.81970215 21.11069824 30.21166992 21.16772461 C27.53658792 21.42067687 24.86205397 21.679027 22.1875 21.9375 C21.25873047 22.02451172 20.32996094 22.11152344 19.37304688 22.20117188 C18.48037109 22.28818359 17.58769531 22.37519531 16.66796875 22.46484375 C15.84578857 22.543396 15.0236084 22.62194824 14.17651367 22.70288086 C11.82512578 22.95551045 11.82512578 22.95551045 9 24 C6.26134713 24.07051114 3.54972412 24.09357765 0.8125 24.0625 C0.06291016 24.05798828 -0.68667969 24.05347656 -1.45898438 24.04882812 C-3.30602383 24.03706354 -5.15302213 24.01912865 -7 24 C-3.17703349 3.17703349 -3.17703349 3.17703349 0 0 Z " fill="#b1c1a8" transform="translate(12,703)"/>
<path d="M0 0 C2.06629052 4.58865418 3.0704757 9.29372611 4.125 14.1875 C4.30675781 15.00669922 4.48851562 15.82589844 4.67578125 16.66992188 C6 22.71851504 6 22.71851504 6 25 C-7.18260284 25.57040108 -19.9651892 23.82671967 -33 22 C-27.96626106 16.91371681 -27.96626106 16.91371681 -25 15 C-24.01 15 -23.02 15 -22 15 C-22 14.34 -22 13.68 -22 13 C-21.443125 12.938125 -20.88625 12.87625 -20.3125 12.8125 C-17.72234371 12.09462025 -17.72234371 12.09462025 -15.5 9.4375 C-13 7 -13 7 -9 7 C-8.67 6.01 -8.34 5.02 -8 4 C-2.62857143 0 -2.62857143 0 0 0 Z " fill="#b1c1a8" transform="translate(561,905)"/>
<path d="M0 0 C0.79956055 1.77832031 0.79956055 1.77832031 1.38671875 4.078125 C1.7105957 5.32529297 1.7105957 5.32529297 2.04101562 6.59765625 C2.36102539 7.91056641 2.36102539 7.91056641 2.6875 9.25 C2.91244141 10.10980469 3.13738281 10.96960938 3.36914062 11.85546875 C4.46037917 16.16071991 5 19.47479357 5 24 C-13.315 22.515 -13.315 22.515 -32 21 C-32.33 20.01 -32.66 19.02 -33 18 C-32.195625 17.71125 -31.39125 17.4225 -30.5625 17.125 C-27.8673532 16.26737432 -27.8673532 16.26737432 -27 14 C-26.01 14 -25.02 14 -24 14 C-24 13.34 -24 12.68 -24 12 C-20.32547562 9.1605948 -18.73113419 8 -14 8 C-13.67 7.01 -13.34 6.02 -13 5 C-10.8203125 3.359375 -10.8203125 3.359375 -8.125 1.75 C-7.24070312 1.20859375 -6.35640625 0.6671875 -5.4453125 0.109375 C-3 -1 -3 -1 0 0 Z " fill="#b1c1a8" transform="translate(542,656)"/>
<path d="M0 0 C1.32 0 2.64 0 4 0 C4.19335938 1.01320313 4.38671875 2.02640625 4.5859375 3.0703125 C4.84874923 4.42191568 5.11178183 5.77347592 5.375 7.125 C5.50132813 7.79015625 5.62765625 8.4553125 5.7578125 9.140625 C6.55835135 13.22337313 7.64516786 17.07098679 9 21 C9.93913919 26.07135161 10.09006652 30.86620818 10 36 C4.33846154 33.53846154 4.33846154 33.53846154 2.625 30.8125 C2.41875 30.214375 2.2125 29.61625 2 29 C1.01 29 0.02 29 -1 29 C-1 28.34 -1 27.68 -1 27 C-1.5775 26.71125 -2.155 26.4225 -2.75 26.125 C-3.4925 25.75375 -4.235 25.3825 -5 25 C-5.721875 24.67 -6.44375 24.34 -7.1875 24 C-9 23 -9 23 -10 21 C-10.845625 20.505 -11.69125 20.01 -12.5625 19.5 C-13.366875 19.005 -14.17125 18.51 -15 18 C-15 17.34 -15 16.68 -15 16 C-16.32 15.67 -17.64 15.34 -19 15 C-19 14.01 -19 13.02 -19 12 C-16.953125 10.5 -16.953125 10.5 -14.25 9 C-10.44442105 6.86673856 -10.44442105 6.86673856 -6.921875 4.3125 C-5 3 -5 3 -1 3 C-0.67 2.01 -0.34 1.02 0 0 Z " fill="#b1c1a8" transform="translate(49,825)"/>
<path d="M0 0 C0.88945312 0.00322266 1.77890625 0.00644531 2.6953125 0.00976562 C4.07589844 0.02233398 4.07589844 0.02233398 5.484375 0.03515625 C6.42023437 0.03966797 7.35609375 0.04417969 8.3203125 0.04882812 C10.62502747 0.06058687 12.92970946 0.07852157 15.234375 0.09765625 C14.574375 4.71765625 13.914375 9.33765625 13.234375 14.09765625 C12.574375 14.09765625 11.914375 14.09765625 11.234375 14.09765625 C11.255 15.37640625 11.275625 16.65515625 11.296875 17.97265625 C11.359375 21.84765625 11.359375 21.84765625 10.234375 24.09765625 C7.84873423 23.52181193 5.56754716 22.8753803 3.234375 22.09765625 C3.234375 21.43765625 3.234375 20.77765625 3.234375 20.09765625 C2.51765625 19.82824219 1.8009375 19.55882812 1.0625 19.28125 C-1.78245223 18.09061391 -4.35869251 16.72329168 -7.015625 15.16015625 C-7.88703125 14.65613281 -8.7584375 14.15210938 -9.65625 13.6328125 C-11.765625 12.09765625 -11.765625 12.09765625 -12.765625 9.09765625 C-15.06096758 7.96220063 -15.06096758 7.96220063 -17.765625 7.09765625 C-19.43229167 6.43098958 -21.09895833 5.76432292 -22.765625 5.09765625 C-22.765625 4.10765625 -22.765625 3.11765625 -22.765625 2.09765625 C-21.80140625 2.03707031 -20.8371875 1.97648437 -19.84375 1.9140625 C-18.58046875 1.83027344 -17.3171875 1.74648438 -16.015625 1.66015625 C-14.76265625 1.57894531 -13.5096875 1.49773437 -12.21875 1.4140625 C-8.9943354 1.21697309 -8.9943354 1.21697309 -6.84765625 0.58398438 C-4.49912416 0.03540605 -2.41052213 -0.01545206 0 0 Z " fill="#b1c1a8" transform="translate(28.765625,361.90234375)"/>
<path d="M0 0 C3.5408881 0.55326377 6.01996286 1.392314 9 3.375 C11.31270763 4.89490445 13.58403961 6.32852228 16 7.6875 C16.99 8.3371875 16.99 8.3371875 18 9 C18 9.66 18 10.32 18 11 C20.475 11.495 20.475 11.495 23 12 C23 12.66 23 13.32 23 14 C23.515625 14.2475 24.03125 14.495 24.5625 14.75 C27.77184151 16.39581616 30.87585664 18.1976096 34 20 C34 20.33 34 20.66 34 21 C20.9651892 22.82671967 8.18260284 24.57040108 -5 24 C-5.13999049 19.49485144 -4.5145403 16.42536869 -2.80078125 12.234375 C-1.380453 8.27131277 -0.72078414 4.13814896 0 0 Z " fill="#b1c1a8" transform="translate(190,906)"/>
<path d="M0 0 C1.32 0 2.64 0 4 0 C1.24390601 23.78877436 1.24390601 23.78877436 -3 34 C-9.92621925 32.99458108 -14.17290283 30.88629608 -19.73828125 26.65625 C-21.77073635 25.1678891 -23.71588592 24.04536113 -26 23 C-24.70489657 19.1146897 -22.3020632 17.70283403 -19.125 15.375 C-17.94421648 14.48974127 -16.76454958 13.60299143 -15.5859375 12.71484375 C-14.9887793 12.26608887 -14.39162109 11.81733398 -13.77636719 11.35498047 C-6.6281705 5.97372029 -6.6281705 5.97372029 0 0 Z " fill="#b1c1a8" transform="translate(558,480)"/>
<path d="M0 0 C1.21436468 3.51181136 0.75734025 5.71443325 -0.25 9.25 C-1.59361653 14.26699015 -2.68726315 19.27059365 -3.625 24.375 C-3.7477832 25.04047852 -3.87056641 25.70595703 -3.99707031 26.39160156 C-4.7014709 30.25513208 -5.36410716 34.12465307 -6 38 C-9.37462715 37.45276317 -11.08235 36.9451 -14 35 C-14 34.34 -14 33.68 -14 33 C-14.66 32.7525 -15.32 32.505 -16 32.25 C-18.41471064 31.24387057 -20.76953887 30.19677187 -23.125 29.0625 C-24.11886719 28.58490234 -24.11886719 28.58490234 -25.1328125 28.09765625 C-27.09039573 26.94685942 -28.47036064 25.66740191 -30 24 C-29.34 24 -28.68 24 -28 24 C-28 23.34 -28 22.68 -28 22 C-26.68 21.67 -25.36 21.34 -24 21 C-24 20.34 -24 19.68 -24 19 C-20.53846154 16 -20.53846154 16 -18 16 C-18 15.34 -18 14.68 -18 14 C-16.68 13.67 -15.36 13.34 -14 13 C-14 12.34 -14 11.68 -14 11 C-12.9275 10.443125 -11.855 9.88625 -10.75 9.3125 C-7.32851639 7.37411917 -5.34334282 5.18025096 -3 2 C-2.01 1.34 -1.02 0.68 0 0 Z " fill="#7bc3df" transform="translate(310,112)"/>
<path d="M0 0 C0.99 0 1.98 0 3 0 C5.45847461 11.34918466 6.6105875 22.39819322 7 34 C2.85701333 33.40165275 -0.18194377 31.99335715 -3.8125 29.9375 C-4.78832031 29.38964844 -5.76414063 28.84179688 -6.76953125 28.27734375 C-7.87361328 27.64505859 -7.87361328 27.64505859 -9 27 C-9 26.34 -9 25.68 -9 25 C-9.85851562 24.57074219 -9.85851562 24.57074219 -10.734375 24.1328125 C-14.15625 22.421875 -17.578125 20.7109375 -21 19 C-20.64880827 16.16582109 -20.21508776 15.18351911 -18.00390625 13.296875 C-17.19824219 12.78640625 -16.39257812 12.2759375 -15.5625 11.75 C-14.75941406 11.22921875 -13.95632812 10.7084375 -13.12890625 10.171875 C-11 9 -11 9 -9 9 C-8.67 8.01 -8.34 7.02 -8 6 C-6.00854609 4.98308736 -4.00812926 3.98357352 -2 3 C-1.34 2.01 -0.68 1.02 0 0 Z " fill="#dfbe62" transform="translate(137,826)"/>
<path d="M0 0 C-0.11583111 1.54238266 -0.24316572 3.08390272 -0.375 4.625 C-0.44460938 5.48351562 -0.51421875 6.34203125 -0.5859375 7.2265625 C-1 10 -1 10 -1.9375 12.71875 C-3.33886902 17.04650726 -3.96209432 21.38347582 -4.625 25.875 C-4.7590625 26.75414062 -4.893125 27.63328125 -5.03125 28.5390625 C-5.35887059 30.69199778 -5.68008508 32.84590622 -6 35 C-11.42853217 34.37387172 -13.24259635 33.86475804 -17 30 C-19.55000322 28.68547958 -22.13125659 27.4972523 -24.7578125 26.34375 C-27.28379425 24.82992121 -27.97620378 23.71478547 -29 21 C-27.625 19.5 -27.625 19.5 -26 18 C-25.34 18 -24.68 18 -24 18 C-24 17.34 -24 16.68 -24 16 C-22.24035652 14.53809653 -20.41433225 13.15571415 -18.5625 11.8125 C-17.46024461 11.00876188 -16.35868889 10.2040634 -15.2578125 9.3984375 C-14.70770508 8.9972168 -14.15759766 8.59599609 -13.59082031 8.18261719 C-10.59756848 5.9574312 -7.72171259 3.58151816 -4.83984375 1.21484375 C-3 0 -3 0 0 0 Z " fill="#b1c1a8" transform="translate(310,779)"/>
<path d="M0 0 C1.61648437 0.01353516 1.61648437 0.01353516 3.265625 0.02734375 C4.08546875 0.03894531 4.9053125 0.05054688 5.75 0.0625 C5.75 2.0425 5.75 4.0225 5.75 6.0625 C5.09 6.0625 4.43 6.0625 3.75 6.0625 C3.56824219 7.47402344 3.56824219 7.47402344 3.3828125 8.9140625 C3.21523438 10.15929688 3.04765625 11.40453125 2.875 12.6875 C2.71257813 13.91726563 2.55015625 15.14703125 2.3828125 16.4140625 C1.79516311 19.80211517 0.93011878 22.83948651 -0.25 26.0625 C-1.57 25.4025 -2.89 24.7425 -4.25 24.0625 C-4.25 23.4025 -4.25 22.7425 -4.25 22.0625 C-5.11625 21.815 -5.9825 21.5675 -6.875 21.3125 C-10.46060064 19.98449976 -13.21327987 18.37619152 -16.25 16.0625 C-16.25 15.4025 -16.25 14.7425 -16.25 14.0625 C-16.79140625 13.97871094 -17.3328125 13.89492187 -17.890625 13.80859375 C-21.06747823 12.80399281 -23.31603503 11.08827067 -26 9.125 C-26.98484375 8.41472656 -27.9696875 7.70445313 -28.984375 6.97265625 C-29.73203125 6.34230469 -30.4796875 5.71195313 -31.25 5.0625 C-31.25 4.4025 -31.25 3.7425 -31.25 3.0625 C-30.63479492 3.00715088 -30.01958984 2.95180176 -29.38574219 2.89477539 C-26.59019004 2.64142518 -23.79510238 2.38326306 -21 2.125 C-20.03191406 2.03798828 -19.06382813 1.95097656 -18.06640625 1.86132812 C-17.13183594 1.77431641 -16.19726562 1.68730469 -15.234375 1.59765625 C-13.94611816 1.47982788 -13.94611816 1.47982788 -12.63183594 1.35961914 C-1.59367401 -0.01732254 -1.59367401 -0.01732254 0 0 Z " fill="#b1c1a8" transform="translate(38.25,1025.9375)"/>
<path d="M0 0 C0.12375 1.051875 0.2475 2.10375 0.375 3.1875 C0.8072334 6.78556698 0.8072334 6.78556698 1.90625 9.10546875 C3.50605867 13.33924812 4.26599284 17.68997787 5.125 22.125 C5.30675781 23.03121094 5.48851563 23.93742188 5.67578125 24.87109375 C7 31.59175282 7 31.59175282 7 35 C3.41726669 33.34643078 0.19026533 31.32019297 -3 29 C-3 28.34 -3 27.68 -3 27 C-3.5775 26.9175 -4.155 26.835 -4.75 26.75 C-7.6225417 25.7924861 -8.95089101 24.18571625 -11 22 C-11.66 21.67 -12.32 21.34 -13 21 C-13 20.34 -13 19.68 -13 19 C-14.32 18.67 -15.64 18.34 -17 18 C-17 17.34 -17 16.68 -17 16 C-17.66 16 -18.32 16 -19 16 C-19 15.34 -19 14.68 -19 14 C-20.32 13.67 -21.64 13.34 -23 13 C-23 12.01 -23 11.02 -23 10 C-22.34 10 -21.68 10 -21 10 C-21 9.34 -21 8.68 -21 8 C-4.18581081 -1.39527027 -4.18581081 -1.39527027 0 0 Z " fill="#699fb5" transform="translate(53,528)"/>
<path d="M0 0 C3.44419134 13.6332574 3.44419134 13.6332574 3 20 C3.66 20 4.32 20 5 20 C5 21.32 5 22.64 5 24 C-8.01717653 23.20728733 -21.00651841 22.10902247 -34 21 C-34 20.34 -34 19.68 -34 19 C-33.01 19 -32.02 19 -31 19 C-31 18.34 -31 17.68 -31 17 C-30.01 17 -29.02 17 -28 17 C-28 16.34 -28 15.68 -28 15 C-24.32547562 12.1605948 -22.73113419 11 -18 11 C-17.67 10.01 -17.34 9.02 -17 8 C-15.22265625 6.61328125 -15.22265625 6.61328125 -13.0625 5.3125 C-11.99708984 4.65701172 -11.99708984 4.65701172 -10.91015625 3.98828125 C-9 3 -9 3 -7 3 C-7 2.34 -7 1.68 -7 1 C-4 0 -4 0 0 0 Z " fill="#b1c1a8" transform="translate(562,269)"/>
<path d="M0 0 C1.32 10.56 2.64 21.12 4 32 C3.01 32.66 2.02 33.32 1 34 C0.67 33.01 0.34 32.02 0 31 C-3.00847418 29.77479736 -3.00847418 29.77479736 -6 29 C-6 28.34 -6 27.68 -6 27 C-6.66 26.7525 -7.32 26.505 -8 26.25 C-11.76360907 24.68182955 -15.3711424 22.85494954 -19 21 C-19 20.34 -19 19.68 -19 19 C-21.475 18.01 -21.475 18.01 -24 17 C-24 16.34 -24 15.68 -24 15 C-24.99 15 -25.98 15 -27 15 C-27 14.01 -27 13.02 -27 12 C-25.73160474 11.49384702 -24.46016898 10.99530901 -23.1875 10.5 C-22.47980469 10.2215625 -21.77210938 9.943125 -21.04296875 9.65625 C-19 9 -19 9 -16 9 C-16 8.34 -16 7.68 -16 7 C-13.89983377 5.82558465 -11.79541245 4.66035988 -9.6875 3.5 C-9.09259766 3.16613281 -8.49769531 2.83226562 -7.88476562 2.48828125 C-5.04171156 0.93174886 -3.29339012 0 0 0 Z " fill="#dfbe62" transform="translate(544,361)"/>
<path d="M0 0 C-0.43490517 4.56650427 -0.93209812 8.97462647 -2 13.4375 C-2.76856234 16.67563396 -3.21904641 19.80874418 -3.5 23.125 C-3.86046848 27.31954235 -4.6962701 31.00189496 -6 35 C-9.99887575 34.42873204 -12.59653716 33.12716428 -16 31 C-16.77730469 30.70222656 -17.55460938 30.40445313 -18.35546875 30.09765625 C-21.11175354 28.95361485 -23.35571932 27.56174494 -25.8125 25.875 C-26.60269531 25.33617187 -27.39289062 24.79734375 -28.20703125 24.2421875 C-28.79871094 23.83226562 -29.39039063 23.42234375 -30 23 C-29.34 22.67 -28.68 22.34 -28 22 C-28 21.34 -28 20.68 -28 20 C-26.3203125 18.4921875 -26.3203125 18.4921875 -24.125 16.875 C-23.40570312 16.33617187 -22.68640625 15.79734375 -21.9453125 15.2421875 C-20 14 -20 14 -18 14 C-18 13.34 -18 12.68 -18 12 C-16.53125 10.703125 -16.53125 10.703125 -14.5 9.25 C-13.77554688 8.72664063 -13.05109375 8.20328125 -12.3046875 7.6640625 C-11.16386719 6.84035156 -11.16386719 6.84035156 -10 6 C-7.88482788 4.37124377 -5.7722263 2.739379 -3.6640625 1.1015625 C-2 0 -2 0 0 0 Z " fill="#95b0bb" transform="translate(562,114)"/>
<path d="M0 0 C0.84416163 2.53851462 1.67547299 5.08010854 2.5 7.625 C2.73847656 8.33785156 2.97695313 9.05070312 3.22265625 9.78515625 C4.57381808 13.99306024 5.28250044 17.52236798 5 22 C-3.50415449 22.23510782 -11.74895182 21.50989633 -20.1875 20.5 C-21.42564453 20.35691406 -22.66378906 20.21382813 -23.93945312 20.06640625 C-26.96033043 19.71649768 -29.98042301 19.36092856 -33 19 C-29.82492898 15.65391977 -26.79284123 13.01789645 -22.8125 10.6875 C-21.95269531 10.17574219 -21.09289062 9.66398437 -20.20703125 9.13671875 C-18 8 -18 8 -16 8 C-15.67 7.01 -15.34 6.02 -15 5 C-13.35 4.67 -11.7 4.34 -10 4 C-10 3.34 -10 2.68 -10 2 C-6.26465772 -0.88154976 -4.48050071 -1.12200774 0 0 Z " fill="#95b0bb" transform="translate(290,292)"/>
<path d="M0 0 C12.10177069 0.4711755 24.00711457 1.27476648 36 3 C36 3.99 36 4.98 36 6 C34.948125 6.556875 33.89625 7.11375 32.8125 7.6875 C30.30165686 9.11014472 28.77114632 10.24156778 26.75 12.375 C23.37862507 15.59313061 19.76775042 17.39645229 15.62109375 19.47265625 C12.91434274 20.88835167 12.91434274 20.88835167 10.91015625 23.18359375 C9 25 9 25 5 25 C4.34646486 22.52264586 3.70210399 20.04345526 3.0625 17.5625 C2.78889648 16.53092773 2.78889648 16.53092773 2.50976562 15.47851562 C1.19215171 10.32784304 0.49551428 5.29417885 0 0 Z " fill="#95b0bb" transform="translate(452,447)"/>
<path d="M0 0 C1.485 0.495 1.485 0.495 3 1 C3.83455438 3.6284008 4.49147879 6.1265854 5.0625 8.8125 C6.01408303 13.11182094 6.94279196 17.07759 9 21 C9 21.99 9 22.98 9 24 C-4.35508602 23.25368637 -17.67407804 22.14665686 -31 21 C-31 20.34 -31 19.68 -31 19 C-29.11282741 17.69488064 -27.16148126 16.48218156 -25.1875 15.3125 C-23.99039128 14.59587689 -22.7937848 13.87841418 -21.59765625 13.16015625 C-20.99324707 12.79937988 -20.38883789 12.43860352 -19.76611328 12.06689453 C-17.18792553 10.50943248 -14.65732545 8.8806908 -12.125 7.25 C-10.41776565 6.1649356 -8.70953725 5.08143251 -7 4 C-6.29617188 3.55140625 -5.59234375 3.1028125 -4.8671875 2.640625 C-3 1.5 -3 1.5 0 0 Z " fill="#7bc3df" transform="translate(287,955)"/>
<path d="M0 0 C4.75 0.875 4.75 0.875 7 2 C7 2.66 7 3.32 7 4 C7.71671875 4.27972656 8.4334375 4.55945313 9.171875 4.84765625 C11.91217198 5.96421372 14.58310909 7.15595512 17.25 8.4375 C18.12140625 8.84871094 18.9928125 9.25992188 19.890625 9.68359375 C22 11 22 11 23 14 C22.34 14 21.68 14 21 14 C21 14.66 21 15.32 21 16 C18 18 18 18 15 18 C15 18.66 15 19.32 15 20 C14.360625 20.103125 13.72125 20.20625 13.0625 20.3125 C12.381875 20.539375 11.70125 20.76625 11 21 C10.67 21.99 10.34 22.98 10 24 C8.66666667 24.33333333 7.33333333 24.66666667 6 25 C5.67 25.99 5.34 26.98 5 28 C3.22265625 29.60546875 3.22265625 29.60546875 1.0625 31.1875 C0.35222656 31.71730469 -0.35804688 32.24710938 -1.08984375 32.79296875 C-3 34 -3 34 -5 34 C-5 34.66 -5 35.32 -5 36 C-5.66 36 -6.32 36 -7 36 C-5.89126126 25.02932189 -3.88421578 14.63788677 -1 4 C-0.66267467 2.66767102 -0.3269842 1.33490457 0 0 Z " fill="#7bc3df" transform="translate(509,572)"/>
<path d="M0 0 C0.27561155 7.8214347 -0.47238863 15.02363889 -2 22.6875 C-2.28617187 24.18700195 -2.28617187 24.18700195 -2.578125 25.71679688 C-3.04312404 28.14641688 -3.51715096 30.5738762 -4 33 C-10.20060243 33 -15.17848321 28.21561644 -19.71484375 24.3671875 C-21 23 -21 23 -21 21 C-21.78375 20.9175 -22.5675 20.835 -23.375 20.75 C-26 20 -26 20 -27.3125 17.9375 C-27.6528125 16.9784375 -27.6528125 16.9784375 -28 16 C-26.35 15.34 -24.7 14.68 -23 14 C-23 13.34 -23 12.68 -23 12 C-21.37750059 11.16180842 -19.75191503 10.3295884 -18.125 9.5 C-17.22007812 9.0359375 -16.31515625 8.571875 -15.3828125 8.09375 C-13 7 -13 7 -11 7 C-11 6.34 -11 5.68 -11 5 C-9.35546875 3.7109375 -9.35546875 3.7109375 -7.1875 2.375 C-6.47980469 1.92898438 -5.77210938 1.48296875 -5.04296875 1.0234375 C-3 0 -3 0 0 0 Z " fill="#dfbe62" transform="translate(395,480)"/>
<path d="M0 0 C1.65 10.23 3.3 20.46 5 31 C2 32 2 32 -1 31 C-1 30.34 -1 29.68 -1 29 C-1.99 29 -2.98 29 -4 29 C-4 28.34 -4 27.68 -4 27 C-5.03125 26.7525 -6.0625 26.505 -7.125 26.25 C-10.95869294 25.14916046 -13.7642996 23.35936488 -17 21 C-18.29114915 20.08260455 -19.58281998 19.16594287 -20.875 18.25 C-21.90625 17.5075 -22.9375 16.765 -24 16 C-22.43835552 11.7835599 -19.58514135 9.58130177 -16 7 C-14.68 7 -13.36 7 -12 7 C-11.67 6.01 -11.34 5.02 -11 4 C-8.4375 2.8125 -8.4375 2.8125 -6 2 C-6 1.34 -6 0.68 -6 0 C-4 -1 -4 -1 0 0 Z " fill="#dfbe62" transform="translate(140,153)"/>
<path d="M0 0 C0.79921875 0.00902344 1.5984375 0.01804687 2.421875 0.02734375 C3.02515625 0.03894531 3.6284375 0.05054688 4.25 0.0625 C3.44500136 6.09998977 2.36517502 12.07520113 1.25 18.0625 C0.59 18.0625 -0.07 18.0625 -0.75 18.0625 C-1.08 20.0425 -1.41 22.0225 -1.75 24.0625 C-5.38970867 24.49070102 -6.79569463 24.03663512 -10.0625 22.1875 C-10.949375 21.48625 -11.83625 20.785 -12.75 20.0625 C-12.75 19.4025 -12.75 18.7425 -12.75 18.0625 C-14.73 17.4025 -16.71 16.7425 -18.75 16.0625 C-18.75 15.4025 -18.75 14.7425 -18.75 14.0625 C-19.6575 13.794375 -20.565 13.52625 -21.5 13.25 C-26.58783784 11.39098233 -26.58783784 11.39098233 -28.75 9.0625 C-28.81529181 7.06356604 -28.82022694 5.06126666 -28.75 3.0625 C-27.87263184 2.97947632 -27.87263184 2.97947632 -26.97753906 2.89477539 C-24.31804892 2.64132735 -21.65903168 2.38321175 -19 2.125 C-18.07960938 2.03798828 -17.15921875 1.95097656 -16.2109375 1.86132812 C-15.32148438 1.77431641 -14.43203125 1.68730469 -13.515625 1.59765625 C-12.69868164 1.519104 -11.88173828 1.44055176 -11.04003906 1.35961914 C-0.5037119 -0.00740753 -0.5037119 -0.00740753 0 0 Z " fill="#b1c1a8" transform="translate(28.75,589.9375)"/>
<path d="M0 0 C6 29.43231441 6 29.43231441 6 34 C2.19359164 33.42735449 -0.43871561 32.35842868 -3.6875 30.3125 C-4.97720703 29.51199219 -4.97720703 29.51199219 -6.29296875 28.6953125 C-7.18628906 28.13585937 -8.07960937 27.57640625 -9 27 C-10.83087934 25.89176899 -12.66412297 24.78743212 -14.5 23.6875 C-15.3146875 23.19636719 -16.129375 22.70523438 -16.96875 22.19921875 C-18.28687784 21.42101635 -19.63089519 20.6845524 -21 20 C-21 19.34 -21 18.68 -21 18 C-21.66 18 -22.32 18 -23 18 C-23 17.34 -23 16.68 -23 16 C-22.34 16 -21.68 16 -21 16 C-21 15.34 -21 14.68 -21 14 C-19.9275 13.443125 -18.855 12.88625 -17.75 12.3125 C-14.30799564 10.35352357 -12.39866728 8.17243092 -10 5 C-6.71770676 1.72665034 -4.8645995 0 0 0 Z " fill="#dfbe62" transform="translate(149,536)"/>
<path d="M0 0 C0.99 0 1.98 0 3 0 C3 0.66 3 1.32 3 2 C4.134375 2.28875 5.26875 2.5775 6.4375 2.875 C7.613125 3.24625 8.78875 3.6175 10 4 C10.33 4.66 10.66 5.32 11 6 C12.7313671 6.75134799 14.4643194 7.49966473 16.2109375 8.21484375 C18.45820168 9.20108851 20.22741492 10.29831833 22 12 C22 12.99 22 13.98 22 15 C21.01 15.33 20.02 15.66 19 16 C18.67 16.66 18.34 17.32 18 18 C17.34 18 16.68 18 16 18 C16 18.66 16 19.32 16 20 C14.3203125 21.2890625 14.3203125 21.2890625 12.125 22.625 C11.40570313 23.07101562 10.68640625 23.51703125 9.9453125 23.9765625 C8 25 8 25 6 25 C5.67 25.99 5.34 26.98 5 28 C2.78515625 30.04296875 2.78515625 30.04296875 0.0625 32.1875 C-1.28134766 33.26064453 -1.28134766 33.26064453 -2.65234375 34.35546875 C-5 36 -5 36 -7 36 C-6.56057178 29.29871965 -5.44714384 22.87183887 -4.0625 16.3125 C-3.89266602 15.50514404 -3.72283203 14.69778809 -3.54785156 13.8659668 C-2.53799306 9.18262778 -1.37048264 4.59080957 0 0 Z " fill="#95b0bb" transform="translate(448,825)"/>
<path d="M0 0 C-1.56222363 11.76262498 -3.6562426 23.37049901 -6 35 C-11.89785171 32.97787941 -15.66445611 29.33554389 -20 25 C-20.66 24.67 -21.32 24.34 -22 24 C-22 23.34 -22 22.68 -22 22 C-23.65 21.67 -25.3 21.34 -27 21 C-27 20.34 -27 19.68 -27 19 C-27.66 19 -28.32 19 -29 19 C-28.8125 17.125 -28.8125 17.125 -28 15 C-25.625 13.9375 -25.625 13.9375 -23 13 C-22.52691406 12.52304687 -22.05382812 12.04609375 -21.56640625 11.5546875 C-19.88328357 9.88415676 -18.46808807 9.14505332 -16.3125 8.1875 C-12.37706596 6.32487284 -9.19380982 3.95516357 -5.859375 1.171875 C-4 0 -4 0 0 0 Z " fill="#dfbe62" transform="translate(406,770)"/>
<path d="M0 0 C5.18840064 0.43566723 8.28794338 3.16773314 12.25 6.25 C17.62422312 10.31682049 22.93585284 14.01318125 29 17 C30.10794922 17.55494141 30.10794922 17.55494141 31.23828125 18.12109375 C32.11033203 18.55615234 32.11033203 18.55615234 33 19 C33 19.66 33 20.32 33 21 C28.56358709 21.5099637 24.12573006 22.00612177 19.6875 22.5 C18.44419922 22.64308594 17.20089844 22.78617187 15.91992188 22.93359375 C8.57633755 23.74312273 1.38785311 24.20614601 -6 24 C-5.37426804 20.75071718 -4.65707249 17.55358093 -3.80859375 14.35546875 C-3.58623047 13.51435547 -3.36386719 12.67324219 -3.13476562 11.80664062 C-2.90466797 10.94232422 -2.67457031 10.07800781 -2.4375 9.1875 C-2.20353516 8.30384766 -1.96957031 7.42019531 -1.72851562 6.50976562 C-1.15368438 4.33948439 -0.57747279 2.16957958 0 0 Z " fill="#95b0bb" transform="translate(191,269)"/>
<path d="M0 0 C3.96519457 1.32173152 6.16075605 2.96494613 9 6 C9.66 6.33 10.32 6.66 11 7 C11 7.66 11 8.32 11 9 C11.70125 9.226875 12.4025 9.45375 13.125 9.6875 C16.69343613 11.31656867 19.06514511 13.40640731 22 16 C21.74609375 17.859375 21.74609375 17.859375 21 20 C19.22265625 21.265625 19.22265625 21.265625 17.0625 22.25 C16.35222656 22.58515625 15.64195312 22.9203125 14.91015625 23.265625 C13 24 13 24 11 24 C11 24.66 11 25.32 11 26 C9.36935236 27.05771739 7.69719127 28.05273046 6 29 C5.01 29.66 4.02 30.32 3 31 C1.68 31 0.36 31 -1 31 C-1 31.66 -1 32.32 -1 33 C-3.475 33.495 -3.475 33.495 -6 34 C-5.54179727 26.96895807 -4.62641501 20.02335456 -3.5625 13.0625 C-3.44028076 12.23387451 -3.31806152 11.40524902 -3.19213867 10.55151367 C-3.00615112 9.36779175 -3.00615112 9.36779175 -2.81640625 8.16015625 C-2.70756104 7.45511963 -2.59871582 6.75008301 -2.48657227 6.02368164 C-1.95261882 3.80293899 -1.09063878 1.99973826 0 0 Z " fill="#dfbe62" transform="translate(227,193)"/>
<path d="M0 0 C1.9375 0.375 1.9375 0.375 4 1 C4.33 1.66 4.66 2.32 5 3 C6.87920824 3.93960412 8.76084914 4.87475394 10.65625 5.78125 C14.64927579 7.85762341 18.30783182 10.43599432 22 13 C21.67 13.99 21.34 14.98 21 16 C20.34 16 19.68 16 19 16 C19 16.66 19 17.32 19 18 C18.21625 18.2475 17.4325 18.495 16.625 18.75 C13.59062001 20.19494285 13.32970275 21.05565819 12 24 C11.01 24.33 10.02 24.66 9 25 C8.54625 25.45375 8.0925 25.9075 7.625 26.375 C6 28 6 28 3.5625 29.4375 C0.91349062 30.9147177 0.91349062 30.9147177 -1.1875 33.1875 C-1.785625 33.785625 -2.38375 34.38375 -3 35 C-3.66 35 -4.32 35 -5 35 C-5.33 35.99 -5.66 36.98 -6 38 C-6.66 38 -7.32 38 -8 38 C-7.71125 36.73285156 -7.4225 35.46570313 -7.125 34.16015625 C-5.76566193 28.04433154 -4.63700859 21.88879265 -3.5 15.72851562 C-2.50758894 10.4291956 -1.36349302 5.21657821 0 0 Z " fill="#95b0bb" transform="translate(448,160)"/>
<path d="M0 0 C8.1057231 -0.21354265 16.01042145 0.61899387 24.0625 1.5 C25.41857365 1.64496351 26.77469324 1.78949803 28.13085938 1.93359375 C31.421048 2.28485944 34.71070945 2.64043805 38 3 C38 3.66 38 4.32 38 5 C36.3203125 6.2890625 36.3203125 6.2890625 34.125 7.625 C33.40570313 8.07101562 32.68640625 8.51703125 31.9453125 8.9765625 C30 10 30 10 28 10 C28 10.66 28 11.32 28 12 C26.59472656 13.12915039 26.59472656 13.12915039 24.640625 14.34765625 C23.93679688 14.78787109 23.23296875 15.22808594 22.5078125 15.68164062 C21.76273437 16.13732422 21.01765625 16.59300781 20.25 17.0625 C19.52039063 17.52205078 18.79078125 17.98160156 18.0390625 18.45507812 C14.69360278 20.52622182 11.88898096 22.19961356 8 23 C8 23.66 8 24.32 8 25 C7.34 25 6.68 25 6 25 C5.49193553 23.27318563 4.99389533 21.54342021 4.5 19.8125 C4.2215625 18.84957031 3.943125 17.88664062 3.65625 16.89453125 C3.03322392 14.14654124 2.87697188 11.80401584 3 9 C2.34 9 1.68 9 1 9 C0.67 6.03 0.34 3.06 0 0 Z " fill="#95b0bb" transform="translate(436,1047)"/>
<path d="M0 0 C5.35004053 0.41961102 8.92070671 3.45973691 13.125 6.5 C14.54199858 7.51360079 15.96118437 8.52415269 17.3828125 9.53125 C18.00559082 9.98048828 18.62836914 10.42972656 19.27001953 10.89257812 C21.11911125 12.17588976 21.11911125 12.17588976 24 13 C24.680625 13.7115625 24.680625 13.7115625 25.375 14.4375 C27.38576214 16.37092514 29.39052205 17.0831564 32 18 C32 18.99 32 19.98 32 21 C19.46 21.99 6.92 22.98 -6 24 C-5.30322562 18.42580494 -4.55675821 13.90195246 -3 8.625 C-2.649375 7.42101562 -2.29875 6.21703125 -1.9375 4.9765625 C-1 2 -1 2 0 0 Z " fill="#50a8ce" transform="translate(211,656)"/>
<path d="M0 0 C1.32 0 2.64 0 4 0 C4.5742149 3.89542197 5.14372513 7.79150056 5.70898438 11.68823242 C5.996238 13.66165521 6.28715735 15.63454328 6.578125 17.60742188 C6.84882813 19.47817383 6.84882813 19.47817383 7.125 21.38671875 C7.29257812 22.53358154 7.46015625 23.68044434 7.6328125 24.86206055 C7.9550671 27.61600897 8.07254211 30.23206495 8 33 C6 32 4 31 2 30 C2 29.34 2 28.68 2 28 C0.7315625 27.6596875 0.7315625 27.6596875 -0.5625 27.3125 C-4.04984692 25.98096754 -6.46696362 24.38306496 -9.38671875 22.12109375 C-11.12217901 20.80277938 -11.12217901 20.80277938 -14 20 C-14 19.34 -14 18.68 -14 18 C-15.1446875 17.566875 -15.1446875 17.566875 -16.3125 17.125 C-19 16 -19 16 -22 14 C-22 13.01 -22 12.02 -22 11 C-20.02 10.67 -18.04 10.34 -16 10 C-15.67 9.01 -15.34 8.02 -15 7 C-11.535 6.505 -11.535 6.505 -8 6 C-8 5.34 -8 4.68 -8 4 C-6.865625 3.525625 -5.73125 3.05125 -4.5625 2.5625 C-1.24259834 1.36377917 -1.24259834 1.36377917 0 0 Z " fill="#dfbe62" transform="translate(288,362)"/>
<path d="M0 0 C1.31602523 0.61754259 2.62773556 1.24428742 3.9375 1.875 C4.66839844 2.22304688 5.39929688 2.57109375 6.15234375 2.9296875 C8 4 8 4 9 6 C10.64363134 6.72159424 12.31050386 7.39351421 14 8 C14 8.66 14 9.32 14 10 C14.66 10 15.32 10 16 10 C16 10.66 16 11.32 16 12 C18.475 12.495 18.475 12.495 21 13 C21 13.66 21 14.32 21 15 C22.11375 15.1546875 22.11375 15.1546875 23.25 15.3125 C26.1973519 16.04933797 27.78383074 16.94799142 30 19 C30 19.66 30 20.32 30 21 C26.89716979 22.48198208 23.79251273 23.96009683 20.6875 25.4375 C19.80642578 25.85837891 18.92535156 26.27925781 18.01757812 26.71289062 C17.17001953 27.11572266 16.32246094 27.51855469 15.44921875 27.93359375 C14.66893311 28.30540771 13.88864746 28.67722168 13.0847168 29.06030273 C11 30 11 30 8 31 C8 31.66 8 32.32 8 33 C5.525 33.495 5.525 33.495 3 34 C2.49358702 29.64655438 1.99601358 25.29214175 1.5 20.9375 C1.35691406 19.70837891 1.21382813 18.47925781 1.06640625 17.21289062 C0.93105469 16.01728516 0.79570312 14.82167969 0.65625 13.58984375 C0.53056641 12.49534912 0.40488281 11.40085449 0.27539062 10.27319336 C-0.01398305 6.83380258 -0.04582048 3.4499 0 0 Z " fill="#dfbe62" transform="translate(456,281)"/>
<path d="M0 0 C4.98989833 1.71082228 8.40793074 4.35968622 12.0625 8.125 C13.9605432 9.961816 15.58885744 10.96665319 18 12 C18 12.66 18 13.32 18 14 C18.53625 14.2475 19.0725 14.495 19.625 14.75 C27.65957447 18.9787234 27.65957447 18.9787234 29 23 C26.28616114 26.14805308 23.7928829 27.64670662 19.93359375 29.140625 C17.03446673 30.4291259 14.499601 32.21310644 11.89453125 34.01171875 C10 35 10 35 6 35 C5.81824219 33.91203125 5.63648438 32.8240625 5.44921875 31.703125 C4.12224018 23.9041222 2.70241333 16.23778263 0.55078125 8.61328125 C-0.06670665 5.68349825 -0.09180277 2.98577577 0 0 Z " fill="#95b0bb" transform="translate(190,114)"/>
<path d="M0 0 C0.50693672 4.01999019 1.0043039 8.04110954 1.5 12.0625 C1.64308594 13.19623047 1.78617188 14.32996094 1.93359375 15.49804688 C2.61191318 21.03765554 3.19443782 26.41801428 3 32 C2.01 32 1.02 32 0 32 C0 31.34 0 30.68 0 30 C-0.94875 29.690625 -1.8975 29.38125 -2.875 29.0625 C-6 28 -6 28 -8 27 C-8 26.34 -8 25.68 -8 25 C-8.79664063 24.85691406 -8.79664063 24.85691406 -9.609375 24.7109375 C-12.77346778 23.7699818 -15.3872457 22.26382311 -18.25 20.625 C-19.32765625 20.01914063 -20.4053125 19.41328125 -21.515625 18.7890625 C-22.33546875 18.19867187 -23.1553125 17.60828125 -24 17 C-24 16.01 -24 15.02 -24 14 C-24.66 14 -25.32 14 -26 14 C-26 13.34 -26 12.68 -26 12 C-24.71086513 11.32845067 -23.41859796 10.66291141 -22.125 10 C-21.40570312 9.62875 -20.68640625 9.2575 -19.9453125 8.875 C-18 8 -18 8 -16 8 C-16 7.34 -16 6.68 -16 6 C-4.26213592 0 -4.26213592 0 0 0 Z " fill="#dfbe62" transform="translate(544,1026)"/>
<path d="M0 0 C1.32 0 2.64 0 4 0 C4.59779805 4.05542538 5.18547574 8.11217719 5.76391602 12.17041016 C5.9620011 13.55004121 6.16282108 14.92928252 6.36645508 16.30810547 C6.65909299 18.29289168 6.94100604 20.2792498 7.22265625 22.265625 C7.39547119 23.45961914 7.56828613 24.65361328 7.74633789 25.88378906 C7.97114747 28.64554982 7.89784497 30.41554905 7 33 C5.68 32.67 4.36 32.34 3 32 C3 31.34 3 30.68 3 30 C2.34 30 1.68 30 1 30 C1 29.34 1 28.68 1 28 C0.443125 27.896875 -0.11375 27.79375 -0.6875 27.6875 C-3.4769101 26.85821592 -5.6139064 25.65700944 -8 24 C-8 23.34 -8 22.68 -8 22 C-8.99 22 -9.98 22 -11 22 C-11 21.34 -11 20.68 -11 20 C-12.65 19.67 -14.3 19.34 -16 19 C-16 18.34 -16 17.68 -16 17 C-18.475 16.01 -18.475 16.01 -21 15 C-21 14.01 -21 13.02 -21 12 C-20.43490723 11.70754395 -19.86981445 11.41508789 -19.28759766 11.11376953 C-16.73136334 9.7880615 -14.17816553 8.45660789 -11.625 7.125 C-10.73554688 6.66480469 -9.84609375 6.20460938 -8.9296875 5.73046875 C-7.65351563 5.06337891 -7.65351563 5.06337891 -6.3515625 4.3828125 C-5.56604004 3.97434082 -4.78051758 3.56586914 -3.97119141 3.14501953 C-1.86103134 2.03187615 -1.86103134 2.03187615 0 0 Z " fill="#dfbe62" transform="translate(288,1026)"/>
<path d="M0 0 C0.99 0.33 1.98 0.66 3 1 C3.19335938 2.01320312 3.38671875 3.02640625 3.5859375 4.0703125 C3.84874923 5.42191568 4.11178183 6.77347592 4.375 8.125 C4.50132813 8.79015625 4.62765625 9.4553125 4.7578125 10.140625 C5.35614465 13.19211894 6.03306327 16.09432756 7.0625 19.03125 C8.16549366 22.52406325 8.41825427 25.72249213 8.625 29.375 C8.69976562 30.62023437 8.77453125 31.86546875 8.8515625 33.1484375 C8.90054688 34.08945313 8.94953125 35.03046875 9 36 C7.68397477 35.38245741 6.37226444 34.75571258 5.0625 34.125 C4.33160156 33.77695313 3.60070312 33.42890625 2.84765625 33.0703125 C1 32 1 32 0 30 C-0.639375 29.690625 -1.27875 29.38125 -1.9375 29.0625 C-4 28 -4 28 -6 25 C-8.05003955 23.80767387 -8.05003955 23.80767387 -10 23 C-10 22.34 -10 21.68 -10 21 C-10.8353125 20.9071875 -10.8353125 20.9071875 -11.6875 20.8125 C-15.05802012 19.6282632 -16.7687468 17.74125393 -19 15 C-19.125 12.8125 -19.125 12.8125 -18 11 C-15.625 9.8125 -15.625 9.8125 -13 9 C-12.01 8.67 -11.02 8.34 -10 8 C-10 7.34 -10 6.68 -10 6 C-8.906875 5.566875 -7.81375 5.13375 -6.6875 4.6875 C-3.90591207 3.50504359 -1.93638061 2.39199957 0 0 Z " fill="#95b0bb" transform="translate(50,160)"/>
<path d="M0 0 C12.91936986 -0.4997464 25.2500611 1.01134802 38 3 C35.26013407 6.5618257 33.0567616 8.9716192 29 11 C28.34 11 27.68 11 27 11 C26.67 11.99 26.34 12.98 26 14 C24.36088404 14.73592961 22.71592021 15.46180445 21.04296875 16.1171875 C16.13963595 18.23602729 11.66431438 21.10949337 8 25 C6 24 6 24 5.32983398 22.00634766 C5.13719971 21.15089355 4.94456543 20.29543945 4.74609375 19.4140625 C4.53146484 18.48335937 4.31683594 17.55265625 4.09570312 16.59375 C3.76989258 15.12421875 3.76989258 15.12421875 3.4375 13.625 C2.99971751 11.70028864 2.56095728 9.77579934 2.12109375 7.8515625 C1.9295874 6.99385254 1.73808105 6.13614258 1.54077148 5.25244141 C0.99904921 2.85377888 0.99904921 2.85377888 0 0 Z " fill="#95b0bb" transform="translate(488,741)"/>
<path d="M0 0 C-0.38941978 7.87037868 -0.80721726 15.38975403 -3 23 C-3.70744512 26.32547332 -4.35693441 29.66153185 -5 33 C-8.79303725 31.99806563 -11.71536341 31.18975773 -15 29 C-15 28.34 -15 27.68 -15 27 C-15.66 27 -16.32 27 -17 27 C-17.33 26.34 -17.66 25.68 -18 25 C-18.99 24.67 -19.98 24.34 -21 24 C-21 23.34 -21 22.68 -21 22 C-21.86625 21.566875 -21.86625 21.566875 -22.75 21.125 C-25.875 19.5625 -25.875 19.5625 -29 18 C-29 17.34 -29 16.68 -29 16 C-26.09451118 13.95830515 -24.59857954 13 -21 13 C-21 12.34 -21 11.68 -21 11 C-18.09451118 8.95830515 -16.59857954 8 -13 8 C-13 7.34 -13 6.68 -13 6 C-7.25 3 -7.25 3 -5 3 C-5 2.34 -5 1.68 -5 1 C-3 0 -3 0 0 0 Z " fill="#dfbe62" transform="translate(405,125)"/>
<path d="M0 0 C0.99 0 1.98 0 3 0 C3 0.66 3 1.32 3 2 C4.32 2.33 5.64 2.66 7 3 C7 3.66 7 4.32 7 5 C9.97 5.495 9.97 5.495 13 6 C13 6.66 13 7.32 13 8 C14.65 8.33 16.3 8.66 18 9 C18 9.66 18 10.32 18 11 C18.99 11 19.98 11 21 11 C21 11.66 21 12.32 21 13 C21.804375 13.2475 22.60875 13.495 23.4375 13.75 C26 15 26 15 26.8125 17.125 C26.874375 17.74375 26.93625 18.3625 27 19 C23.25 22 23.25 22 21 22 C21 22.66 21 23.32 21 24 C17.53846154 27 17.53846154 27 15 27 C14.773125 27.61875 14.54625 28.2375 14.3125 28.875 C12.61545208 31.62260139 10.97485929 31.93210179 8 33 C7.67 33.66 7.34 34.32 7 35 C6.34 35 5.68 35 5 35 C4.27994916 31.14198294 3.56819129 27.28253299 2.86376953 23.42163086 C2.50591268 21.46974988 2.14168107 19.5190411 1.77734375 17.56835938 C1.55175781 16.32763672 1.32617188 15.08691406 1.09375 13.80859375 C0.88427734 12.67220459 0.67480469 11.53581543 0.45898438 10.36499023 C-0.01788263 6.8688956 -0.07835485 3.52400923 0 0 Z " fill="#dfbe62" transform="translate(67,77)"/>
<path d="M0 0 C0.66 0 1.32 0 2 0 C1.43174786 10.40798659 0.39777395 20.67275755 -1 31 C-5.6796875 32.171875 -5.6796875 32.171875 -8.5625 30.625 C-9.366875 30.08875 -10.17125 29.5525 -11 29 C-13.19130534 28.30420546 -13.19130534 28.30420546 -15 28 C-15 27.34 -15 26.68 -15 26 C-15.99 26 -16.98 26 -18 26 C-18 25.34 -18 24.68 -18 24 C-18.9075 23.87625 -19.815 23.7525 -20.75 23.625 C-23.58970323 23.07890323 -25.52590591 22.42736197 -28 21 C-28 20.01 -28 19.02 -28 18 C-27.278125 17.731875 -26.55625 17.46375 -25.8125 17.1875 C-22.95320276 16.05967316 -22.95320276 16.05967316 -20.3125 14.375 C-18 13 -18 13 -16 13 C-15.67 12.01 -15.34 11.02 -15 10 C-12.69198851 8.35554181 -10.41277106 6.84736029 -8 5.375 C-3.77489457 2.97042336 -3.77489457 2.97042336 0 0 Z " fill="#dfbe62" transform="translate(42,281)"/>
<path d="M0 0 C0.99 0 1.98 0 3 0 C3 0.66 3 1.32 3 2 C3.77923828 2.37705078 3.77923828 2.37705078 4.57421875 2.76171875 C12.71116347 6.91536042 20.72731039 11.45890315 28 17 C25.32203864 20.6697989 22.93578681 22.77981257 19 25 C18.505 25.515625 18.01 26.03125 17.5 26.5625 C15.5540185 28.42739894 13.51952188 29.11476258 11 30 C11 30.66 11 31.32 11 32 C9.02 32.495 9.02 32.495 7 33 C7 33.66 7 34.32 7 35 C6.34 35 5.68 35 5 35 C4.11618483 30.66050938 3.24370961 26.31893779 2.3815918 21.97509766 C2.08683592 20.49823946 1.78901056 19.02199038 1.48803711 17.54638672 C1.05551261 15.42308462 0.63413841 13.29782398 0.21484375 11.171875 C-0.04176025 9.8940918 -0.29836426 8.61630859 -0.56274414 7.29980469 C-0.95019204 4.37588186 -1.00919336 2.71913225 0 0 Z " fill="#95b0bb" transform="translate(67,442)"/>
<path d="M0 0 C3.83901868 0.54843124 5.36163505 2.2765265 8 5 C8.99 5.33 9.98 5.66 11 6 C12.66666667 7.66666667 14.33333333 9.33333333 16 11 C17.65261839 12.02304948 19.31791365 13.02616054 21 14 C22.8125 15.5625 22.8125 15.5625 24 17 C24 17.66 24 18.32 24 19 C24.99 19 25.98 19 27 19 C28.6875 21 28.6875 21 30 23 C21.16 30.28 21.16 30.28 16 32 C15.54625 32.515625 15.0925 33.03125 14.625 33.5625 C13 35 13 35 8 35 C7.34 30.71 6.68 26.42 6 22 C5.34 22 4.68 22 4 22 C3.52006844 19.45847565 3.04103273 16.91678778 2.5625 14.375 C2.42779297 13.66214844 2.29308594 12.94929687 2.15429688 12.21484375 C1.38981729 8.15004987 0.66330363 4.08285925 0 0 Z " fill="#95b0bb" transform="translate(189,778)"/>
<path d="M0 0 C2.475 0.99 2.475 0.99 5 2 C5 2.66 5 3.32 5 4 C5.66 4 6.32 4 7 4 C7 4.66 7 5.32 7 6 C7.5775 6.28875 8.155 6.5775 8.75 6.875 C10.83333333 7.91666667 12.91666667 8.95833333 15 10 C15 10.66 15 11.32 15 12 C15.99 12 16.98 12 18 12 C18 12.66 18 13.32 18 14 C18.99 14 19.98 14 21 14 C21 14.66 21 15.32 21 16 C21.66 16 22.32 16 23 16 C23 16.99 23 17.98 23 19 C21.71086513 19.67154933 20.41859796 20.33708859 19.125 21 C18.40570313 21.37125 17.68640625 21.7425 16.9453125 22.125 C15 23 15 23 13 23 C13 23.66 13 24.32 13 25 C10.09451118 27.04169485 8.59857954 28 5 28 C5 28.66 5 29.32 5 30 C2.36107824 31.78305524 0.02821137 32.99059621 -3 34 C-3.33 34.66 -3.66 35.32 -4 36 C-5 35 -5 35 -5.1484375 32.09375 C-5.07569545 27.17739048 -4.3394764 22.35706555 -3.625 17.5 C-3.49867188 16.58863281 -3.37234375 15.67726563 -3.2421875 14.73828125 C-2.51108414 9.67173498 -1.54243867 4.8821537 0 0 Z " fill="#95b0bb" transform="translate(323,564)"/>
<path d="M0 0 C3.6754537 0.50851286 6.89475386 1.6498316 10.3125 3.0625 C11.19550781 3.42472656 12.07851562 3.78695313 12.98828125 4.16015625 C13.98408203 4.57587891 13.98408203 4.57587891 15 5 C15 5.66 15 6.32 15 7 C15.70125 7.268125 16.4025 7.53625 17.125 7.8125 C20.1649824 9.0681449 23.0727774 10.50235123 26 12 C22.82635843 15.44566799 20.38999156 17.41472527 16 19 C15.67 19.66 15.34 20.32 15 21 C13.28151718 21.69400268 11.56255198 22.38686588 9.83984375 23.0703125 C7.67756827 24.04274798 7.67756827 24.04274798 5.3125 26.6875 C4.549375 27.450625 3.78625 28.21375 3 29 C1.68 29 0.36 29 -1 29 C-1.33 29.99 -1.66 30.98 -2 32 C-2.66 31.67 -3.32 31.34 -4 31 C-2.46176912 2.46176912 -2.46176912 2.46176912 0 0 Z " fill="#dfbe62" transform="translate(209,1027)"/>
<path d="M0 0 C0.99 0 1.98 0 3 0 C3 0.66 3 1.32 3 2 C4.65 2.33 6.3 2.66 8 3 C8 3.66 8 4.32 8 5 C8.928125 5.4640625 8.928125 5.4640625 9.875 5.9375 C11.25 6.625 12.625 7.3125 14 8 C14 8.66 14 9.32 14 10 C14.639375 10.12375 15.27875 10.2475 15.9375 10.375 C16.618125 10.58125 17.29875 10.7875 18 11 C18.33 11.66 18.66 12.32 19 13 C19.99 13.33 20.98 13.66 22 14 C22 14.66 22 15.32 22 16 C22.66 16.33 23.32 16.66 24 17 C19.25 20 19.25 20 17 20 C16.67 20.99 16.34 21.98 16 23 C14.34374511 23.76187725 12.68031455 24.5129657 10.98046875 25.171875 C8.93095205 26.02887212 7.09497074 27.05181511 5.1875 28.1875 C2 30 2 30 0 30 C0 30.66 0 31.32 0 32 C-2.475 32.495 -2.475 32.495 -5 33 C-4.38328716 21.96296668 -2.8961207 10.69336873 0 0 Z " fill="#95b0bb" transform="translate(280,864)"/>
<path d="M0 0 C3.35474101 0.59114379 5.12827765 1.71225441 7.625 4 C10.12374312 6.27217224 10.12374312 6.27217224 13 8 C13 8.66 13 9.32 13 10 C13.66 10.20625 14.32 10.4125 15 10.625 C19.07180186 12.49124252 22.68796998 14.97561527 26 18 C26 18.66 26 19.32 26 20 C26.99 20.33 27.98 20.66 29 21 C27.63880608 25.08358176 25.66807348 25.85452306 22 28 C20.00379834 28.67795528 18.00461299 29.34733531 16 30 C15.67 30.66 15.34 31.32 15 32 C12.4375 32.625 12.4375 32.625 10 33 C10 33.66 10 34.32 10 35 C9.01 35 8.02 35 7 35 C5.22034688 29.01185899 3.78806494 23.2779196 3.24609375 17.05078125 C2.87214824 13.93456866 1.87519464 11.00848156 1 8 C0.57637649 5.33587881 0.28256908 2.6844063 0 0 Z " fill="#50a8ce" transform="translate(190,480)"/>
<path d="M0 0 C4.4960134 1.09636392 8.74706983 2.13934305 13 4 C13 4.66 13 5.32 13 6 C13.99 6 14.98 6 16 6 C16 6.66 16 7.32 16 8 C17.8871875 8.433125 17.8871875 8.433125 19.8125 8.875 C22.8539399 9.57303539 24.30669878 10.20446585 27 12 C27 12.66 27 13.32 27 14 C26.01 14 25.02 14 24 14 C23.67 14.99 23.34 15.98 23 17 C21.41777479 17.6535278 19.83232136 18.29997567 18.234375 18.9140625 C14.35165142 20.80112046 11.0589318 23.53632324 7.6484375 26.16015625 C5 28 5 28 2.2265625 29.05859375 C1.49179688 29.36925781 0.75703125 29.67992187 0 30 C-0.33 30.99 -0.66 31.98 -1 33 C-1.66 32.67 -2.32 32.34 -3 32 C-2.27018606 21.30246413 -1.15921571 10.65803178 0 0 Z " fill="#95b0bb" transform="translate(208,362)"/>
<path d="M0 0 C11.71102662 5.64638783 11.71102662 5.64638783 16 9 C16 9.66 16 10.32 16 11 C18.65228812 12.07525194 21.28368454 13.09456151 24 14 C25.02019573 14.9793879 26.02149805 15.97895449 27 17 C27.66 17.33 28.32 17.66 29 18 C29 18.99 29 19.98 29 21 C26.69 21.66 24.38 22.32 22 23 C22 23.66 22 24.32 22 25 C20.02 25.33 18.04 25.66 16 26 C16 26.66 16 27.32 16 28 C14.40084119 28.69906942 12.79544955 29.38389468 11.1875 30.0625 C10.29417969 30.44535156 9.40085937 30.82820312 8.48046875 31.22265625 C6 32 6 32 3 31 C2.49409633 26.95904957 1.99632438 22.91713726 1.5 18.875 C1.35691406 17.73289062 1.21382813 16.59078125 1.06640625 15.4140625 C0.93105469 14.30546875 0.79570312 13.196875 0.65625 12.0546875 C0.53056641 11.03874512 0.40488281 10.02280273 0.27539062 8.97607422 C-0.00315378 5.9659179 -0.04726727 3.02116606 0 0 Z " fill="#95b0bb" transform="translate(456,946)"/>
<path d="M0 0 C0.144375 1.134375 0.28875 2.26875 0.4375 3.4375 C0.61171478 6.80777201 0.61171478 6.80777201 2 8 C2.40426348 10.58492561 2.75393278 13.15346396 3.0625 15.75 C3.15337891 16.46671875 3.24425781 17.1834375 3.33789062 17.921875 C3.79173374 21.63451644 4.1104536 25.25930484 4 29 C3.34 29 2.68 29 2 29 C2 28.34 2 27.68 2 27 C0.02 26.67 -1.96 26.34 -4 26 C-4 25.34 -4 24.68 -4 24 C-4.58007812 23.89429687 -5.16015625 23.78859375 -5.7578125 23.6796875 C-8.32273397 22.90216775 -9.79624242 21.80303323 -11.875 20.125 C-14.3335802 18.2056623 -16.43541959 16.7822902 -19.25 15.375 C-22.11412617 13.94293692 -23.87530232 12.3698551 -26 10 C-25.02247332 7.4542487 -24.5263704 6.24922449 -22.01171875 5.05859375 C-21.24472656 4.85363281 -20.47773438 4.64867187 -19.6875 4.4375 C-16.85047029 3.61791364 -15.01520438 3.01052611 -12.5625 1.3125 C-8.53773877 -0.74896307 -4.4374652 -0.23264381 0 0 Z " fill="#dfbe62" transform="translate(292,0)"/>
<path d="M0 0 C1.44096586 0.42594588 2.87768712 0.86626633 4.3125 1.3125 C5.11300781 1.55613281 5.91351563 1.79976562 6.73828125 2.05078125 C9.14921765 3.06262502 10.21355292 4.1375339 12 6 C14.03232242 7.19599068 14.03232242 7.19599068 16.1875 8.1875 C16.90292969 8.53167969 17.61835937 8.87585938 18.35546875 9.23046875 C19.16951172 9.61138672 19.16951172 9.61138672 20 10 C20 10.66 20 11.32 20 12 C20.763125 12.12375 21.52625 12.2475 22.3125 12.375 C25 13 25 13 28 15 C28 15.66 28 16.32 28 17 C27.278125 17.2475 26.55625 17.495 25.8125 17.75 C22.13602647 19.38398823 18.83898291 21.32203419 17 25 C16.01 25 15.02 25 14 25 C14 25.66 14 26.32 14 27 C13.360625 27.103125 12.72125 27.20625 12.0625 27.3125 C11.381875 27.539375 10.70125 27.76625 10 28 C9.67 28.99 9.34 29.98 9 31 C8.01 31 7.02 31 6 31 C6 31.66 6 32.32 6 33 C5.34 33 4.68 33 4 33 C1.44620505 21.85324721 -0.1843296 11.42843515 0 0 Z " fill="#95b0bb" transform="translate(68,743)"/>
<path d="M0 0 C3.3 0 6.6 0 10 0 C10.99 8.91 11.98 17.82 13 27 C12.01 27.33 11.02 27.66 10 28 C7.58203125 26.77734375 7.58203125 26.77734375 4.8125 24.9375 C3.83925781 24.29425781 2.86601563 23.65101562 1.86328125 22.98828125 C-1.28185745 20.80427634 -4.34285357 18.54189145 -7.34375 16.1640625 C-9.11111288 14.80363569 -9.11111288 14.80363569 -12 14 C-12 13.34 -12 12.68 -12 12 C-13.65 11.67 -15.3 11.34 -17 11 C-17 10.01 -17 9.02 -17 8 C-15.85660156 7.50628906 -14.71320312 7.01257813 -13.53515625 6.50390625 C-12.044217 5.85689488 -10.5533345 5.2097527 -9.0625 4.5625 C-8.30775391 4.23701172 -7.55300781 3.91152344 -6.77539062 3.57617188 C-3.12971311 2.19897394 -3.12971311 2.19897394 0 0 Z " fill="#95b0bb" transform="translate(534,0)"/>
<path d="M0 0 C12.11764706 -0.70588235 12.11764706 -0.70588235 18 4 C20.95161174 5.44888404 23.9665305 6.73268386 27 8 C25.73809862 11.78570414 24.45144185 12.21831571 21.0625 14.1875 C19.71865234 14.98220703 19.71865234 14.98220703 18.34765625 15.79296875 C16 17 16 17 14 17 C14 17.66 14 18.32 14 19 C10.06171464 21.31663844 6.30764815 23.43358249 2 25 C2 25.66 2 26.32 2 27 C0.35 27.33 -1.3 27.66 -3 28 C-2.69215285 24.27043397 -2.37790473 20.54143389 -2.0625 16.8125 C-1.97548828 15.75740234 -1.88847656 14.70230469 -1.79882812 13.61523438 C-1.71181641 12.59365234 -1.62480469 11.57207031 -1.53515625 10.51953125 C-1.456604 9.58214111 -1.37805176 8.64475098 -1.29711914 7.67895508 C-1.00824513 5.07434165 -0.55423169 2.56002256 0 0 Z " fill="#95b0bb" transform="translate(208,0)"/>
<path d="M0 0 C0.99 0 1.98 0 3 0 C3.33 0.66 3.66 1.32 4 2 C4.99 2.33 5.98 2.66 7 3 C7 3.66 7 4.32 7 5 C8.32 5.33 9.64 5.66 11 6 C11 6.66 11 7.32 11 8 C11.804375 8.309375 12.60875 8.61875 13.4375 8.9375 C16 10 16 10 17 11 C17.07226502 12.85287502 17.0838122 14.70833878 17.0625 16.5625 C17.05347656 17.57441406 17.04445313 18.58632813 17.03515625 19.62890625 C17.02355469 20.41136719 17.01195312 21.19382812 17 22 C15.56705502 22.84114171 14.12845595 23.67265687 12.6875 24.5 C11.48673828 25.19609375 11.48673828 25.19609375 10.26171875 25.90625 C8 27 8 27 5 27 C5 27.66 5 28.32 5 29 C3.68 29.33 2.36 29.66 1 30 C1 30.66 1 31.32 1 32 C-1.5 33.625 -1.5 33.625 -4 35 C-5.52384778 33.47615222 -5.16908901 32.12094628 -5.1875 30 C-5.07281553 18.07281553 -5.07281553 18.07281553 -2 15 C-1.60056824 12.47804033 -1.24920152 9.97036344 -0.9375 7.4375 C-0.84662109 6.72658203 -0.75574219 6.01566406 -0.66210938 5.28320312 C-0.43760497 3.52261597 -0.21831603 1.76136522 0 0 Z " fill="#95b0bb" transform="translate(603,536)"/>
<path d="M0 0 C12.21 0 24.42 0 37 0 C36.3463665 5.22906802 35.65051354 9.93698697 34.4375 15 C34.16808594 16.134375 33.89867187 17.26875 33.62109375 18.4375 C33.41613281 19.283125 33.21117187 20.12875 33 21 C31.35 20.67 29.7 20.34 28 20 C28 19.34 28 18.68 28 18 C27.11707275 17.81884644 27.11707275 17.81884644 26.21630859 17.6340332 C23.95134135 16.98607992 22.47580911 16.17632665 20.5390625 14.85546875 C19.90226562 14.42556641 19.26546875 13.99566406 18.609375 13.55273438 C17.95453125 13.10220703 17.2996875 12.65167969 16.625 12.1875 C15.97789063 11.74857422 15.33078125 11.30964844 14.6640625 10.85742188 C11.67257321 8.82791351 8.6896166 6.78656534 5.7109375 4.73828125 C3.06551369 2.88524147 3.06551369 2.88524147 0 2 C0 1.34 0 0.68 0 0 Z " fill="#95b0bb" transform="translate(6,0)"/>
<path d="M0 0 C1.32 0 2.64 0 4 0 C4 0.66 4 1.32 4 2 C5.32 2.33 6.64 2.66 8 3 C8.11594584 6.93725326 8.18716464 10.87406923 8.25 14.8125 C8.30027344 16.49182617 8.30027344 16.49182617 8.3515625 18.20507812 C8.36445312 19.27822266 8.37734375 20.35136719 8.390625 21.45703125 C8.41157227 22.44678955 8.43251953 23.43654785 8.45410156 24.45629883 C8 27 8 27 6.10058594 28.84643555 C4 30 4 30 2 30 C2 30.66 2 31.32 2 32 C0.02 32.66 -1.96 33.32 -4 34 C-4.11269443 27.8894576 -3.89604368 22.04829486 -3 16 C-2.34 16 -1.68 16 -1 16 C-0.67 10.72 -0.34 5.44 0 0 Z " fill="#dfbe62" transform="translate(612,152)"/>
<path d="M0 0 C0.99 0.33 1.98 0.66 3 1 C3 1.66 3 2.32 3 3 C4.32 3.33 5.64 3.66 7 4 C7 12.25 7 20.5 7 29 C-3 34 -3 34 -5 34 C-4.88535985 31.29087219 -4.75862846 28.58320339 -4.625 25.875 C-4.5940625 25.11445312 -4.563125 24.35390625 -4.53125 23.5703125 C-4.29589937 19.02020041 -3.54926576 15.31971747 -2 11 C-1.75591908 9.23607499 -1.56418036 7.46372043 -1.4375 5.6875 C-1.1016129 1.1016129 -1.1016129 1.1016129 0 0 Z " fill="#95b0bb" transform="translate(613,826)"/>
<path d="M0 0 C3.74758216 0.74951643 6.16805802 1.38298482 9.5 2.9375 C11.99486952 4.09345621 14.40403707 5.14309646 17 6.0625 C17.66 6.371875 18.32 6.68125 19 7 C19.33 7.99 19.66 8.98 20 10 C16.8745041 12.64465038 13.91211733 13.84414715 10 15 C10 15.66 10 16.32 10 17 C8.68 17.33 7.36 17.66 6 18 C6 18.66 6 19.32 6 20 C4.02 20.66 2.04 21.32 0 22 C0 14.74 0 7.48 0 0 Z " fill="#95b0bb" transform="translate(0,447)"/>
<path d="M0 0 C0.66 0 1.32 0 2 0 C2 0.66 2 1.32 2 2 C2.66 2 3.32 2 4 2 C4.67305018 3.60149886 5.33822227 5.20631029 6 6.8125 C6.37125 7.70582031 6.7425 8.59914063 7.125 9.51953125 C8 12 8 12 8 15 C8.66 15 9.32 15 10 15 C11.485 19.455 11.485 19.455 13 24 C6.4491015 23.54240047 0.3246158 22.7899856 -6 21 C-6.40080122 16.45758619 -5.04051364 14.00545269 -3 10 C-1.8997527 6.69430203 -0.93511109 3.35578873 0 0 Z " fill="#95b0bb" transform="translate(106,662)"/>
<path d="M0 0 C0.99 0.33 1.98 0.66 3 1 C4.16796875 3.43359375 4.16796875 3.43359375 5.1875 6.4375 C5.53167969 7.42621094 5.87585938 8.41492188 6.23046875 9.43359375 C7 12 7 12 7 14 C7.66 14 8.32 14 9 14 C9.66 16.64 10.32 19.28 11 22 C11.66 22 12.32 22 13 22 C13 22.99 13 23.98 13 25 C6.4491015 24.54240047 0.3246158 23.7899856 -6 22 C-5.17791532 17.28482466 -3.80735764 12.76520355 -2.4375 8.1875 C-2.20353516 7.39923828 -1.96957031 6.61097656 -1.72851562 5.79882812 C-1.15431596 3.86529864 -0.57742667 1.93256823 0 0 Z " fill="#8BC86A" transform="translate(106,362)"/>
<path d="M0 0 C-1.38040002 4.48630006 -3.14811333 8.68965139 -5.09765625 12.94921875 C-6.09417614 15.12815613 -6.09417614 15.12815613 -7 18 C-7.66 18 -8.32 18 -9 18 C-9.66 20.64 -10.32 23.28 -11 26 C-11.66 26 -12.32 26 -13 26 C-13.84610515 23.48283718 -14.67696767 20.96220727 -15.5 18.4375 C-15.73847656 17.73302734 -15.97695313 17.02855469 -16.22265625 16.30273438 C-17.71425759 11.67877023 -18.25529455 7.85697889 -18 3 C-15.93918639 2.49309416 -13.87626474 1.99475381 -11.8125 1.5 C-10.66394531 1.2215625 -9.51539063 0.943125 -8.33203125 0.65625 C-5.43181171 0.08504615 -2.93903615 -0.13283779 0 0 Z " fill="#95b0bb" transform="translate(370,654)"/>
<path d="M0 0 C0.99 0.33 1.98 0.66 3 1 C4.24609375 3.66015625 4.24609375 3.66015625 5.4375 7.0625 C6.88112227 11.04777238 8.3354681 14.87424798 10.3125 18.625 C12 22 12 22 12 25 C10.31185763 24.88399745 8.62449113 24.75668975 6.9375 24.625 C5.99777344 24.55539062 5.05804688 24.48578125 4.08984375 24.4140625 C0.55977428 23.94100641 -2.59798802 23.04481267 -6 22 C-5.37798054 19.45757096 -4.75248241 16.91608125 -4.125 14.375 C-3.95097656 13.66214844 -3.77695313 12.94929688 -3.59765625 12.21484375 C-2.57145662 8.07203784 -1.41209271 4.03273322 0 0 Z " fill="#8CC96B" transform="translate(106,1026)"/>
<path d="M0 0 C6.39205856 0.72362927 12.68027076 1.80343362 19 3 C18.50370819 8.65772659 17.37287259 12.77968029 15 18 C14.25435009 20.31878936 13.62493206 22.64448686 13 25 C12.34 25 11.68 25 11 25 C10.731875 24.278125 10.46375 23.55625 10.1875 22.8125 C9.09210278 20.01405821 9.09210278 20.01405821 7.5625 17.6875 C6.23354177 15.40169184 5.37402841 13.4085751 4.5 10.9375 C3.39571081 7.82913044 2.03151585 5.61194895 0 3 C0 2.01 0 1.02 0 0 Z " fill="#caa7b9" transform="translate(130,953)"/>
<path d="M0 0 C6.14154225 0.58490879 12.00679849 1.54066252 18 3 C17.3146345 7.99450259 15.97984349 12.5967594 14.4375 17.375 C14.20353516 18.11105469 13.96957031 18.84710938 13.72851562 19.60546875 C13.1559972 21.40481238 12.57850686 23.20257277 12 25 C11.34 25 10.68 25 10 25 C9.34 22.36 8.68 19.72 8 17 C7.34 17 6.68 17 6 17 C5.32694982 15.39850114 4.66177773 13.79368971 4 12.1875 C3.62875 11.29417969 3.2575 10.40085937 2.875 9.48046875 C2 7 2 7 2 4 C1.34 4 0.68 4 0 4 C0 2.68 0 1.36 0 0 Z " fill="#8ea9b7" transform="translate(131,289)"/>
<path d="M0 0 C0.99 0.33 1.98 0.66 3 1 C3.79956055 2.71826172 3.79956055 2.71826172 4.38671875 4.9296875 C4.60263672 5.72503906 4.81855469 6.52039062 5.04101562 7.33984375 C5.25435547 8.17644531 5.46769531 9.01304688 5.6875 9.875 C5.91244141 10.70386719 6.13738281 11.53273438 6.36914062 12.38671875 C7.25220576 15.70962039 8 18.54482494 8 22 C5.91798472 22.50546036 3.83432933 23.00416835 1.75 23.5 C0.58984375 23.7784375 -0.5703125 24.056875 -1.765625 24.34375 C-5 25 -5 25 -9 25 C-8.55215775 18.28236627 -5.87925293 13.01385244 -3 7 C-1.97641078 4.67585036 -0.98784496 2.33963281 0 0 Z " fill="#8ea9b7" transform="translate(392,1026)"/>
<path d="M0 0 C0.99 0 1.98 0 3 0 C3.19335938 0.80824219 3.38671875 1.61648438 3.5859375 2.44921875 C3.84632813 3.51785156 4.10671875 4.58648437 4.375 5.6875 C4.63023437 6.74324219 4.88546875 7.79898437 5.1484375 8.88671875 C5.91234708 11.95649479 5.91234708 11.95649479 7.1015625 14.58203125 C8.07976253 17.21466525 8.15914204 19.21501422 8 22 C5.3754034 22.50220072 2.75036631 23.00185357 0.125 23.5 C-0.62136719 23.64308594 -1.36773437 23.78617187 -2.13671875 23.93359375 C-7.7734375 25 -7.7734375 25 -10 25 C-9.38694401 20.10513107 -7.25688818 16.24215911 -5 11.9375 C-4.26708664 10.53189518 -3.53779112 9.12439676 -2.8125 7.71484375 C-2.48894531 7.09730225 -2.16539062 6.47976074 -1.83203125 5.84350586 C-0.96285756 3.91770464 -0.45072688 2.06042507 0 0 Z " fill="#8BC86A" transform="translate(392,362)"/>
<path d="M0 0 C-1.26869235 5.92056432 -3.13965435 10.66068812 -6 16 C-6.66 16 -7.32 16 -8 16 C-8.144375 16.94875 -8.28875 17.8975 -8.4375 18.875 C-9 22 -9 22 -10 24 C-10.66 24 -11.32 24 -12 24 C-12.33 21.36 -12.66 18.72 -13 16 C-13.66 16 -14.32 16 -15 16 C-15.50692692 14.4188708 -16.00526443 12.83498617 -16.5 11.25 C-16.7784375 10.36828125 -17.056875 9.4865625 -17.34375 8.578125 C-18 6 -18 6 -18 2 C-16.12612523 1.6603981 -14.25083303 1.32861309 -12.375 1 C-11.33085937 0.814375 -10.28671875 0.62875 -9.2109375 0.4375 C-6.09425135 0.01284203 -3.14069188 -0.07545206 0 0 Z " fill="#8ea9b7" transform="translate(369,954)"/>
<path d="M0 0 C2.06277107 0.14194764 4.12521031 0.28872216 6.1875 0.4375 C7.91033203 0.55931641 7.91033203 0.55931641 9.66796875 0.68359375 C12.51598171 0.95403812 15.21210482 1.37521747 18 2 C17.38334864 7.39392739 16.12077204 12.28395283 14.4375 17.4375 C14.20353516 18.16904297 13.96957031 18.90058594 13.72851562 19.65429688 C13.15732778 21.43780179 12.57936877 23.21913583 12 25 C11.34 25 10.68 25 10 25 C9.54625 23.783125 9.0925 22.56625 8.625 21.3125 C8.35042969 20.58546875 8.07585937 19.8584375 7.79296875 19.109375 C7.16225954 17.43162636 6.54715392 15.74801378 5.9375 14.0625 C5.18351615 11.82959215 5.18351615 11.82959215 3 11 C2.1484375 9.2578125 2.1484375 9.2578125 1.375 7.125 C1.11460937 6.42632813 0.85421875 5.72765625 0.5859375 5.0078125 C0 3 0 3 0 0 Z " fill="#8ea9b7" transform="translate(131,655)"/>
<path d="M0 0 C-0.60994619 8.94587749 -4.86339935 17.16223034 -9 25 C-9.66 25 -10.32 25 -11 25 C-11.19335938 24.34773438 -11.38671875 23.69546875 -11.5859375 23.0234375 C-11.84632813 22.14945312 -12.10671875 21.27546875 -12.375 20.375 C-12.64699219 19.45976562 -12.91898438 18.54453125 -13.19921875 17.6015625 C-13.80525639 15.63267924 -14.48050728 13.68492744 -15.1875 11.75 C-16.08619115 8.7082761 -16.05665468 6.15522998 -16 3 C-14.08487728 2.49411853 -12.16783078 1.99551609 -10.25 1.5 C-8.64898438 1.08234375 -8.64898438 1.08234375 -7.015625 0.65625 C-4 0 -4 0 0 0 Z " fill="#8BC86A" transform="translate(620,289)"/>
<path d="M0 0 C2.13001854 3.81213599 3.33989912 7.91207244 4.625 12.0625 C4.96917969 13.14241211 4.96917969 13.14241211 5.3203125 14.24414062 C6.2627321 17.26493202 7 19.81674867 7 23 C6.21753906 23.13277344 5.43507813 23.26554688 4.62890625 23.40234375 C3.11103516 23.66724609 3.11103516 23.66724609 1.5625 23.9375 C0.55316406 24.11152344 -0.45617187 24.28554688 -1.49609375 24.46484375 C-3.9287438 24.74751097 -3.9287438 24.74751097 -5 26 C-7.33297433 26.04092937 -9.66705225 26.04241723 -12 26 C-10.125 21.25 -10.125 21.25 -9 19 C-8.34 19 -7.68 19 -7 19 C-6.8865625 18.31421875 -6.773125 17.6284375 -6.65625 16.921875 C-5.89832017 13.54728264 -4.75402727 10.47255845 -3.5 7.25 C-3.0565625 6.10015625 -2.613125 4.9503125 -2.15625 3.765625 C-1 1 -1 1 0 0 Z " fill="#8ea9b7" transform="translate(393,660)"/>
<path d="M0 0 C1.32 0 2.64 0 4 0 C4.84600276 2.0364495 5.6762825 4.07943487 6.5 6.125 C6.9640625 7.26195312 7.428125 8.39890625 7.90625 9.5703125 C8.98315041 12.9471645 9.21360807 15.48614728 9 19 C7.10507994 19.33848652 5.20901534 19.67056911 3.3125 20 C2.25675781 20.185625 1.20101563 20.37125 0.11328125 20.5625 C-2.64904062 20.95068074 -5.21742043 21.08259976 -8 21 C-7.38597477 13.42702221 -3.37034741 6.67799069 0 0 Z " fill="#caa7b9" transform="translate(391,0)"/>
<path d="M0 0 C1.33332095 2.6666419 0.67102033 4.16680303 0 7 C-0.66 7 -1.32 7 -2 7 C-2.27585937 7.84820312 -2.55171875 8.69640625 -2.8359375 9.5703125 C-4.01454991 13.04286854 -5.29930406 16.45609995 -6.625 19.875 C-7.07101562 21.02742188 -7.51703125 22.17984375 -7.9765625 23.3671875 C-8.31429688 24.23601562 -8.65203125 25.10484375 -9 26 C-11 25 -11 25 -11.78125 22.890625 C-12.0184375 22.01921875 -12.255625 21.1478125 -12.5 20.25 C-13.27292431 17.48395107 -14.02533416 14.9426648 -15.1875 12.3125 C-16 10 -16 10 -16 3 C-10.72 2.01 -5.44 1.02 0 0 Z " fill="#caa7b9" transform="translate(368,289)"/>
<path d="M0 0 C-1.29717921 8.30194697 -5.17597803 15.62402086 -9 23 C-9.66 23 -10.32 23 -11 23 C-11.81571218 20.43848317 -12.62766131 17.87587372 -13.4375 15.3125 C-13.66759766 14.59126953 -13.89769531 13.87003906 -14.13476562 13.12695312 C-15.2969767 9.43819625 -16.34442773 5.82040393 -17 2 C-14.91727106 1.66291092 -12.83378963 1.33046884 -10.75 1 C-9.58984375 0.814375 -8.4296875 0.62875 -7.234375 0.4375 C-4 0 -4 0 0 0 Z " fill="#caa7b9" transform="translate(620,655)"/>
<path d="M0 0 C0.36205204 4.35249515 -0.66828163 6.71564246 -2.875 10.4375 C-5.04867508 14.23117821 -6.85157919 17.750843 -8 22 C-9.32 22 -10.64 22 -12 22 C-12.65003625 19.79290017 -13.29484745 17.58426108 -13.9375 15.375 C-14.29714844 14.14523437 -14.65679688 12.91546875 -15.02734375 11.6484375 C-15.88485972 8.43189164 -16.51903985 5.29078001 -17 2 C-14.91727106 1.66291092 -12.83378963 1.33046884 -10.75 1 C-9.58984375 0.814375 -8.4296875 0.62875 -7.234375 0.4375 C-4 0 -4 0 0 0 Z " fill="#8CC96B" transform="translate(620,954)"/>
<path d="M0 0 C1.65 0 3.3 0 5 0 C5 1.32 5 2.64 5 4 C5.66 4 6.32 4 7 4 C11.22323462 15.52164009 11.22323462 15.52164009 13 21 C1.47835991 20.22095672 1.47835991 20.22095672 -4 18 C-3.41632611 11.69632197 -1.95928381 6.01339937 0 0 Z " fill="#caa7b9" transform="translate(105,0)"/>
<path d="M0 0 C5.76044212 0.60636233 10.72014369 2.75658279 16 5 C16 5.66 16 6.32 16 7 C10.77592168 10.0244664 5.88090487 10.96686806 0 12 C0 8.04 0 4.08 0 0 Z " fill="#8CC96C" transform="translate(0,214)"/>
<path d="M0 0 C0.66 2.64 1.32 5.28 2 8 C-6.58 8 -15.16 8 -24 8 C-20.84567867 5.89711911 -18.24894384 5.06147554 -14.625 4 C-11.44026458 3.06288245 -8.34282641 2.14145273 -5.2734375 0.875 C-3 0 -3 0 0 0 Z " fill="#8ea9b7" transform="translate(368,1072)"/>
<path d="M0 0 C0.99 0 1.98 0 3 0 C2.34 5.94 1.68 11.88 1 18 C0.67 18 0.34 18 0 18 C0 12.06 0 6.12 0 0 Z " fill="#80C258" transform="translate(0,886)"/>
<path d="M0 0 C2.64 0.33 5.28 0.66 8 1 C6.35 2.65 4.7 4.3 3 6 C1.5 4.6875 1.5 4.6875 0 3 C0 2.01 0 1.02 0 0 Z " fill="#82C560" transform="translate(130,953)"/>
<path d="M0 0 C0.33 0.99 0.66 1.98 1 3 C-0.25 5.375 -0.25 5.375 -2 8 C-2.8353125 9.3921875 -2.8353125 9.3921875 -3.6875 10.8125 C-4.120625 11.534375 -4.55375 12.25625 -5 13 C-5.33 12.34 -5.66 11.68 -6 11 C-4.78515625 8.3984375 -4.78515625 8.3984375 -3.0625 5.375 C-2.21365234 3.87066406 -2.21365234 3.87066406 -1.34765625 2.3359375 C-0.90292969 1.56507813 -0.45820312 0.79421875 0 0 Z " fill="#78C254" transform="translate(619,959)"/>
<path d="M0 0 C0.99 0.33 1.98 0.66 3 1 C3.33 2.65 3.66 4.3 4 6 C3.67 5.34 3.34 4.68 3 4 C1.35 5.32 -0.3 6.64 -2 8 C-1.34 5.36 -0.68 2.72 0 0 Z " fill="#81C65F" transform="translate(106,1026)"/>
<path d="M0 0 C0.66 0 1.32 0 2 0 C2 0.66 2 1.32 2 2 C3.32 2.33 4.64 2.66 6 3 C5.01 3.495 5.01 3.495 4 4 C3.34 3.67 2.68 3.34 2 3 C2 5.97 2 8.94 2 12 C1.67 12 1.34 12 1 12 C0.67 8.04 0.34 4.08 0 0 Z " fill="#77C150" transform="translate(66,740)"/>
<path d="M0 0 C0.66 0.33 1.32 0.66 2 1 C0.02 1.99 0.02 1.99 -2 3 C-2 3.66 -2 4.32 -2 5 C-1.34 5.33 -0.68 5.66 0 6 C-1.98 6 -3.96 6 -6 6 C-6 5.34 -6 4.68 -6 4 C-4.03852126 2.61061923 -2.03833424 1.2739589 0 0 Z " fill="#7BC155" transform="translate(262,970)"/>
<path d="M0 0 C0.93065133 2.60582371 1.14917407 3.64198224 0.0625 6.25 C-0.4634375 7.11625 -0.4634375 7.11625 -1 8 C-1.33 6.68 -1.66 5.36 -2 4 C-3.98 4.99 -3.98 4.99 -6 6 C-4 4 -2 2 0 0 Z " fill="#7EC358" transform="translate(310,112)"/>
<path d="M0 0 C4.55737263 0.43820891 7.57653445 0.85041169 11 4 C6.55129785 4.39253254 3.85756507 3.15305957 0 1 C0 0.67 0 0.34 0 0 Z " fill="#7BC357" transform="translate(144,710)"/>
<path d="M0 0 C2 3 2 3 2 6 C-3.75 5.25 -3.75 5.25 -6 3 C-3.03 3.495 -3.03 3.495 0 4 C0 2.68 0 1.36 0 0 Z " fill="#81C65E" transform="translate(374,432)"/>
<path d="M0 0 C0.99 0 1.98 0 3 0 C3 0.99 3 1.98 3 3 C-0.63 3 -4.26 3 -8 3 C-8 2.67 -8 2.34 -8 2 C-5.36 2 -2.72 2 0 2 C0 1.34 0 0.68 0 0 Z " fill="#7EC459" transform="translate(240,674)"/>
<path d="M0 0 C0.99 0 1.98 0 3 0 C3 0.66 3 1.32 3 2 C2.34 2 1.68 2 1 2 C1 4.64 1 7.28 1 10 C0.67 10 0.34 10 0 10 C-0.19412181 8.52168779 -0.38012131 7.04230684 -0.5625 5.5625 C-0.66691406 4.73878906 -0.77132812 3.91507812 -0.87890625 3.06640625 C-0.91886719 2.38449219 -0.95882812 1.70257813 -1 1 C-0.67 0.67 -0.34 0.34 0 0 Z " fill="#79C053" transform="translate(67,442)"/>
<path d="M0 0 C0.93065133 2.60582371 1.14917407 3.64198224 0.0625 6.25 C-0.4634375 7.11625 -0.4634375 7.11625 -1 8 C-2.65 7.67 -4.3 7.34 -6 7 C-5.071875 6.6596875 -5.071875 6.6596875 -4.125 6.3125 C-1.38589791 4.62070165 -0.94975528 3.00755839 0 0 Z " fill="#5fb9df" transform="translate(118,261)"/>
</svg>
